<svg width="52" height="52" viewBox="0 0 52 52" fill="none" xmlns="http://www.w3.org/2000/svg">
<g clip-path="url(#clip0_675_429)">
<path d="M26 52C40.3594 52 52 40.3594 52 26C52 11.6406 40.3594 0 26 0C11.6406 0 0 11.6406 0 26C0 40.3594 11.6406 52 26 52Z" fill="white"/>
<path d="M26 50.1281C39.3256 50.1281 50.1282 39.3256 50.1282 26C50.1282 12.6744 39.3256 1.87183 26 1.87183C12.6744 1.87183 1.87186 12.6744 1.87186 26C1.87186 39.3256 12.6744 50.1281 26 50.1281Z" fill="#FBB700"/>
<path d="M10.2952 19.4298V32.5609C10.2952 34.1051 11.1188 35.5371 12.4572 36.3046L23.8286 42.8748C25.167 43.6516 26.8142 43.6516 28.1526 42.8748L39.5241 36.3046C40.8625 35.5277 41.6861 34.1051 41.6861 32.5609V19.4298C41.6861 17.8856 40.8625 16.4536 39.5241 15.6861L28.1526 9.11594C26.8142 8.33912 25.167 8.33912 23.8286 9.11594L12.4572 15.6861C11.1188 16.463 10.2952 17.8856 10.2952 19.4298Z" fill="white"/>
<path d="M26.6364 18.5968V17.2772H27.2822C27.6378 17.2772 27.928 16.987 27.928 16.6314C27.928 16.2757 27.6378 15.9856 27.2822 15.9856H24.7178C24.3621 15.9856 24.072 16.2757 24.072 16.6314C24.072 16.987 24.3621 17.2772 24.7178 17.2772H25.3635V18.5968C20.7682 18.9525 17.324 22.9676 17.6796 27.563C18.0353 32.1584 22.0504 35.6026 26.6458 35.2469C31.2412 34.8913 34.6854 30.8762 34.3297 26.2808C34.0115 22.1721 30.7545 18.915 26.6458 18.5968H26.6364Z" fill="#353535"/>
<path d="M26.6364 18.5969C26.4212 18.5875 26.2059 18.5875 25.9906 18.5969C25.7754 18.5875 25.5601 18.5875 25.3448 18.5969C20.7494 18.9525 17.3052 22.9676 17.6609 27.563C18.0165 32.1584 22.0317 35.6026 26.6271 35.247C31.2224 34.8913 34.6667 30.8762 34.311 26.2808C33.9928 22.1721 30.7358 18.9151 26.6271 18.5969H26.6364ZM27.928 28.2369H25.3636C25.0079 28.2369 24.7178 27.9468 24.7178 27.5911V24.9892C24.7178 24.6336 25.0079 24.3434 25.3636 24.3434C25.7192 24.3434 26.0093 24.6336 26.0093 24.9892V26.9172H27.9374C28.293 26.9172 28.5831 27.2074 28.5831 27.563C28.5831 27.9187 28.293 28.2088 27.9374 28.2088V28.2369H27.928Z" fill="#353535"/>
<path d="M26 22.0972C23.342 22.0972 21.18 24.2498 21.18 26.9172C21.18 29.5846 23.3326 31.7372 26 31.7372C28.6674 31.7372 30.82 29.5846 30.82 26.9172C30.82 24.2498 28.6674 22.0972 26 22.0972ZM27.928 28.1994H25.3635C25.0079 28.1994 24.7178 27.9093 24.7178 27.5536V24.9892C24.7178 24.6335 25.0079 24.3434 25.3635 24.3434C25.7192 24.3434 26.0093 24.6335 26.0093 24.9892V26.9172H27.9373C28.293 26.9172 28.5831 27.2073 28.5831 27.563C28.5831 27.9186 28.293 28.2088 27.9373 28.2088L27.928 28.1994Z" fill="white"/>
</g>
<defs>
<clipPath id="clip0_675_429">
<rect width="52" height="52" fill="white"/>
</clipPath>
</defs>
</svg>
