<svg width="39" height="40" viewBox="0 0 39 40" fill="none" xmlns="http://www.w3.org/2000/svg">
<path d="M16.4319 38.1887H16.4563C16.4319 38.1887 16.3953 38.2011 16.3709 38.2135C16.3831 38.2135 16.4075 38.2135 16.4197 38.2011L16.4319 38.1887Z" fill="#616160"/>
<path d="M19.4939 12.9202V17.9813L12.1746 22.2093V30.1927C11.7476 29.571 11.3572 28.9368 10.9913 28.2777C10.9913 28.2653 10.9669 28.2528 10.9669 28.2404C10.4179 27.2456 10.0032 26.2632 9.74699 25.3057C9.6128 24.7958 9.51521 24.286 9.45421 23.7886C9.41762 23.4528 9.39322 23.1295 9.39322 22.7938C9.39322 22.6445 9.39322 22.4829 9.40542 22.3212C9.45421 21.3886 9.625 20.4932 9.91777 19.6476C10.1252 19.0632 10.3691 18.5036 10.6741 17.9813C11.0889 17.2601 11.589 16.601 12.1746 16.0041C12.2966 15.8798 12.4186 15.7554 12.5527 15.6435C12.9309 15.2829 13.8214 14.6362 13.8214 14.6362C15.4439 13.5544 17.4079 12.9202 19.5061 12.9202H19.4939Z" fill="#FBB700"/>
<path d="M29.5948 22.3337C29.546 21.4011 29.3752 20.5058 29.0824 19.6602C28.8751 19.0757 28.6311 18.5161 28.3261 17.9938C27.9235 17.2726 27.4112 16.6135 26.8378 16.0166C26.7158 15.8798 26.5939 15.7679 26.4597 15.6436C26.0815 15.2829 25.6667 14.9721 25.2398 14.6736L25.2032 14.6985V14.6612C23.5807 13.5669 21.6167 12.9327 19.5063 12.9327V17.9938L20.9458 18.827L26.8378 22.2343V23.9006L19.5063 19.6602V37.0322C20.531 36.5224 21.5069 35.8882 22.3974 35.1545C22.3974 35.1545 22.6292 34.9555 22.7512 34.8436C23.0806 34.5452 23.5319 34.1348 23.7149 33.9358C24.2395 33.426 24.7274 32.9037 25.2032 32.3441C25.5935 31.8965 25.9595 31.4239 26.3133 30.9514C26.4963 30.7151 26.6671 30.454 26.8378 30.2053C27.2648 29.5959 27.6552 28.9493 28.0211 28.2902C28.0211 28.2778 28.0333 28.2654 28.0455 28.2529C28.6067 27.2581 29.0092 26.2757 29.2654 25.3182C29.4118 24.8084 29.4972 24.3109 29.546 23.8135C29.5948 23.4778 29.607 23.142 29.607 22.8187C29.607 22.6695 29.607 22.5078 29.5948 22.3462V22.3337Z" fill="#FBB700"/>
<path d="M3.91585 8.9907L2.46418 9.82386L0 11.2663V39.7804H4.80637C4.95276 39.7804 5.11135 39.7804 5.26993 39.7555C6.27024 39.7058 8.41725 39.5441 9.16139 39.4695C9.23458 39.4695 9.30777 39.4695 9.36877 39.4447C10.2715 39.3452 11.1986 39.2208 12.1501 39.0716C12.3209 39.0467 12.5039 39.0094 12.6869 38.9721C13.6872 38.7856 15.639 38.3877 16.3709 38.2011C16.3953 38.2011 16.4319 38.1887 16.4563 38.1763C17.5054 37.8903 18.518 37.5048 19.4817 37.0198V19.6477L14.8583 22.3213L13.797 22.9306V33.1897C13.2114 32.8664 12.6625 32.4685 12.1623 32.0332C11.7598 31.6975 11.3694 31.3244 11.0156 30.9265C10.3813 30.2301 9.83233 29.4467 9.38097 28.6011C8.95401 27.8053 8.61244 26.9597 8.38066 26.0643C8.24647 25.5793 8.14888 25.0695 8.08788 24.5596C8.01469 24.0498 7.97809 23.5275 7.97809 22.9928V22.3213H8.00249C8.05129 21.4011 8.20987 20.5058 8.45385 19.6477C8.62463 19.0757 8.83202 18.5161 9.08819 17.9814C9.18579 17.77 9.28338 17.571 9.39317 17.3721C9.88112 16.4519 10.4911 15.6187 11.1986 14.8601C11.5036 14.5368 11.8329 14.2259 12.1745 13.9399C12.2233 13.9026 12.2721 13.8653 12.3087 13.828C12.7113 13.4923 13.1382 13.1814 13.5896 12.9202C13.6628 12.8705 13.736 12.8208 13.8092 12.7959C15.4926 11.8135 17.4323 11.2539 19.4939 11.2539V0L3.91585 8.9907Z" fill="#F49700"/>
<path d="M35.0475 26.9721L31.0097 24.6467L30.9853 22.3337C30.9365 21.4135 30.7779 20.5182 30.5339 19.6602C30.3754 19.0881 30.1558 18.5285 29.8996 17.9938C29.802 17.7824 29.7044 17.5835 29.5946 17.3845C29.1067 16.4643 28.4967 15.6187 27.7892 14.8726C27.4842 14.5493 26.6791 13.8404 26.6791 13.8404C26.2765 13.5047 25.264 12.8456 25.1908 12.8083C23.5074 11.8259 21.5677 11.2663 19.4939 11.2663V0L39 11.2663V24.6218C39 26.6861 36.8164 27.9918 35.0475 26.9721Z" fill="#FBB700"/>
</svg>
