<svg width="56" height="56" viewBox="0 0 56 56" fill="none" xmlns="http://www.w3.org/2000/svg">
<g clip-path="url(#clip0_675_637)">
<path d="M28 56C43.464 56 56 43.464 56 28C56 12.536 43.464 0 28 0C12.536 0 0 12.536 0 28C0 43.464 12.536 56 28 56Z" fill="#FCFCFC"/>
<path d="M28.0001 53.9877C42.3527 53.9877 53.9878 42.3526 53.9878 28C53.9878 13.6474 42.3527 2.01227 28.0001 2.01227C13.6474 2.01227 2.01233 13.6474 2.01233 28C2.01233 42.3526 13.6474 53.9877 28.0001 53.9877Z" fill="#FBB700"/>
<path d="M11.0928 20.9317V35.0581C11.0928 36.7266 11.9826 38.2737 13.4286 39.1029L25.6641 46.1712C27.1101 47.0104 28.8898 47.0104 30.3358 46.1712L42.5713 39.1029C44.0173 38.2636 44.9071 36.7266 44.9071 35.0581V20.9317C44.9071 19.2632 44.0173 17.7161 42.5713 16.8869L30.3358 9.81868C28.8898 8.97939 27.1101 8.97939 25.6641 9.81868L13.4286 16.8869C11.9826 17.7262 11.0928 19.2632 11.0928 20.9317Z" fill="white"/>
<path d="M39.3153 24.7136L38.0311 19.5869C37.8693 18.9599 37.303 18.515 36.6559 18.515H19.3442C18.6971 18.515 18.1308 18.9599 17.969 19.5869L16.6848 24.7136C16.6747 24.7642 16.6646 24.8249 16.6646 24.8855C16.6646 26.8372 18.1712 28.4247 20.0318 28.4247C21.1138 28.4247 22.0744 27.8888 22.6913 27.0596C23.3081 27.8888 24.2687 28.4247 25.3507 28.4247C26.4327 28.4247 27.3933 27.8888 28.0102 27.0596C28.627 27.8888 29.5876 28.4247 30.6696 28.4247C31.7516 28.4247 32.7122 27.8888 33.3291 27.0596C33.9459 27.8888 34.9065 28.4247 35.9885 28.4247C37.8491 28.4247 39.3558 26.8372 39.3558 24.8855C39.3558 24.8249 39.3558 24.7743 39.3356 24.7136H39.3153Z" fill="#353535"/>
<path d="M35.9682 29.8505C35.0076 29.8505 34.0874 29.5573 33.3088 29.0214C31.7617 30.1033 29.5472 30.1033 28 29.0214C26.4529 30.1033 24.2384 30.1033 22.6913 29.0214C21.9126 29.5573 21.0026 29.8505 20.0318 29.8505C19.3341 29.8505 18.6768 29.6888 18.0802 29.4056V36.9289C18.0802 37.7075 18.7173 38.3446 19.4959 38.3446H25.1586V32.6819H30.8213V38.3446H36.484C37.2626 38.3446 37.8996 37.7075 37.8996 36.9289V29.4056C37.303 29.6786 36.6457 29.8505 35.948 29.8505H35.9682Z" fill="#353535"/>
</g>
<defs>
<clipPath id="clip0_675_637">
<rect width="56" height="56" fill="white"/>
</clipPath>
</defs>
</svg>
