<svg width="42" height="36" viewBox="0 0 42 36" fill="none" xmlns="http://www.w3.org/2000/svg">
<g clip-path="url(#clip0_675_971)">
<path d="M14.6773 9.52355C14.6347 8.20403 14.8478 5.8375 14.3079 4.63272C16.4818 3.45662 15.6293 4.86309e-05 13.1286 4.86309e-05H7.00476C2.21653 -0.272461 0.0852742 4.34587 2.81329 7.75941V9.52355C3.14008 17.4694 14.3505 17.4694 14.6773 9.52355ZM4.20571 7.08531C4.46146 6.08132 5.22871 5.24945 6.23751 4.94826H12.9297C13.4696 5.99527 13.228 8.3618 13.2849 9.52355C13.0575 15.5905 4.43304 15.5905 4.20571 9.52355V7.08531Z" fill="#FBB700"/>
<path d="M40.4796 13.1234C40.0392 12.5497 39.9397 11.6318 40.2097 10.4127C40.4796 9.27962 41.2469 8.37603 41.1332 7.05651C41.0053 5.62225 39.5277 3.87245 38.0074 3.87245C36.8565 3.87245 35.3504 2.78241 34.7537 1.80711C34.1143 0.788784 32.7219 0.0429675 31.3436 0.0142822C29.9938 0.0142822 28.8003 0.616673 28.0047 1.77843C26.8964 3.3848 25.9871 3.92982 25.0209 4.50353C22.6339 5.70831 22.0514 7.21428 22.506 10.0254C24.3531 10.384 26.0581 11.4167 27.1948 12.937V10.6565C29.7665 11.4023 31.2726 11.9617 33.9296 9.7099C34.0716 9.6095 34.1569 9.43739 34.1853 9.27962C34.299 8.54815 35.1515 7.97444 35.8335 8.34735C36.5013 9.46607 36.2171 11.847 36.274 13.1091C36.3308 17.082 31.3863 19.1904 28.6156 16.4222C28.8003 18.0143 28.4451 19.6637 27.6068 21.0262C28.0473 20.7394 28.5304 20.4956 29.0419 20.2948C30.4485 21.4995 33.0202 21.4995 34.4269 20.2948C37.1691 21.3274 39.0588 23.9091 39.0588 26.835V27.5378C39.0588 29.1011 37.8085 30.3633 36.2597 30.3633H29.6955C29.1129 30.3633 28.644 29.89 28.644 29.3019C28.644 28.7139 29.1129 28.2406 29.6955 28.2406H35.5493C36.0608 28.2406 36.4018 27.6812 36.1745 27.2222C35.8903 26.1179 35.9756 24.9131 36.4018 23.8374C36.5439 23.4788 36.3734 23.0629 36.0182 22.9195C34.5974 22.4462 34.5405 25.9744 34.6826 26.835H29.6955C26.4702 26.9354 26.4702 31.6685 29.6955 31.7689H36.3308C36.8139 31.7545 37.2543 31.6685 37.6522 31.525V32.4716C37.6522 33.6477 36.7144 34.58 35.5635 34.58H30.3348C30.0223 35.1107 29.6386 35.5983 29.1698 35.9856H35.5635C37.4959 35.9856 39.0588 34.4079 39.0588 32.4573V30.6645C41.1048 28.8573 40.6643 25.4007 39.5987 23.1633C42.4404 20.6964 42.8382 16.0493 40.5081 13.0948L40.4796 13.1234Z" fill="#FBB700"/>
<path d="M20.9574 23.2638C26.0298 23.3499 29.2693 17.3833 25.774 13.4391C22.1509 9.19368 14.6631 11.6606 14.6631 17.2686C14.6631 20.5674 17.4763 23.2638 20.9432 23.2638H20.9574ZM16.0981 16.8096C16.3539 15.0598 17.9878 14.0845 19.6502 14.7443C20.3464 14.9594 21.0853 16.0638 21.4973 17.0104C22.0941 18.373 23.1313 19.9076 24.7653 20.1371C21.8809 23.5937 15.6293 21.4566 16.0981 16.8096Z" fill="#FBB700"/>
<path d="M4.90192 34.537C3.75104 34.537 2.81329 33.5904 2.81329 32.4287V27.9538C3.60896 28.4127 9.81803 28.1259 10.841 28.1976C14.0663 28.0972 14.0663 23.3641 10.841 23.2637H5.85389C5.99597 22.4175 5.92493 18.8605 4.5183 19.3482C4.16309 19.4916 3.99259 19.9076 4.13467 20.2661C4.56092 21.3418 4.64617 22.5466 4.362 23.651C4.13467 24.0956 4.48988 24.6836 4.98717 24.6693H10.841C12.2192 24.698 12.2192 26.7633 10.841 26.7777H4.20571C2.657 26.7777 1.40666 25.5155 1.40666 23.9522C1.17933 20.7968 2.98379 17.8279 6.0386 16.6948C7.45943 17.8996 10.0169 17.8996 11.4236 16.6948C12.1056 16.953 12.7307 17.2972 13.2849 17.7275C13.2565 17.1825 13.2849 16.6231 13.3701 16.0924C12.7876 15.7338 12.1482 15.447 11.4662 15.2319C11.2104 15.1458 10.9263 15.2319 10.7416 15.4183C9.83224 16.451 7.61573 16.451 6.70639 15.4183C6.52168 15.2175 6.25172 15.1458 5.98176 15.2319C2.42966 16.3936 0.0142375 19.6064 0.0142375 23.2637C-0.0994296 24.698 0.34103 26.204 1.40666 27.1076V32.4143C1.40666 34.3649 2.96958 35.9426 4.90192 35.9426H12.7165C12.2619 35.541 11.864 35.0677 11.5657 34.537H4.90192Z" fill="#FBB700"/>
<path d="M25.845 29.3019C25.845 27.882 26.6122 26.6199 27.7631 25.9601C26.7401 24.741 25.3477 23.8087 23.6995 23.2924C23.4438 23.2207 23.1738 23.2924 22.9891 23.4788C22.5202 23.9665 21.7672 24.2533 20.9715 24.2533C20.1758 24.2533 19.4086 23.9665 18.9539 23.4788C18.7692 23.2924 18.4992 23.2207 18.2435 23.2924C14.6488 24.4111 12.2475 27.5665 12.2475 31.1234C11.9776 33.6478 13.8105 35.9426 16.439 35.9426H25.5182C27.3511 35.9426 28.914 34.7808 29.4823 33.1601C27.4789 33.0454 25.8734 31.3529 25.8734 29.3019H25.845Z" fill="#FBB700"/>
</g>
<defs>
<clipPath id="clip0_675_971">
<rect width="42" height="36" fill="white"/>
</clipPath>
</defs>
</svg>
