<svg width="56" height="56" viewBox="0 0 56 56" fill="none" xmlns="http://www.w3.org/2000/svg">
<g clip-path="url(#clip0_675_887)">
<path d="M28 56C43.464 56 56 43.464 56 28C56 12.536 43.464 0 28 0C12.536 0 0 12.536 0 28C0 43.464 12.536 56 28 56Z" fill="white"/>
<path d="M27.9999 53.9877C42.3526 53.9877 53.9876 42.3526 53.9876 28C53.9876 13.6474 42.3526 2.01227 27.9999 2.01227C13.6473 2.01227 2.01221 13.6474 2.01221 28C2.01221 42.3526 13.6473 53.9877 27.9999 53.9877Z" fill="#FBB700"/>
<path d="M11.0928 20.9317V35.0581C11.0928 36.7266 11.9826 38.2737 13.4286 39.1029L25.6641 46.1712C27.1101 47.0104 28.8898 47.0104 30.3358 46.1712L42.5713 39.1029C44.0173 38.2636 44.9071 36.7266 44.9071 35.0581V20.9317C44.9071 19.2632 44.0173 17.7161 42.5713 16.8869L30.3358 9.81868C28.8898 8.97939 27.1101 8.97939 25.6641 9.81868L13.4286 16.8869C11.9826 17.7262 11.0928 19.2632 11.0928 20.9317Z" fill="white"/>
<path d="M28.0044 21.2273C29.3937 21.2273 30.5199 20.1011 30.5199 18.7119C30.5199 17.3227 29.3937 16.1965 28.0044 16.1965C26.6152 16.1965 25.489 17.3227 25.489 18.7119C25.489 20.1011 26.6152 21.2273 28.0044 21.2273Z" fill="#353535"/>
<path d="M28.0046 21.8271C29.6152 21.8271 30.9182 20.5151 30.9182 18.9136C30.9182 17.312 29.6062 16 28.0046 16C26.4031 16 25.0911 17.312 25.0911 18.9136C25.0911 20.5151 26.4031 21.8271 28.0046 21.8271Z" fill="#353535"/>
<path d="M29.4794 23.4106H26.5116C25.1091 23.4106 23.969 24.5507 23.969 25.9532V31.5088C23.969 31.8889 24.2766 32.1965 24.6567 32.1965H25.4439V38.9194C25.4439 39.2994 25.7515 39.6071 26.1315 39.6071H29.8323C30.2123 39.6071 30.52 39.2994 30.52 38.9194V32.1965H31.3072C31.6872 32.1965 31.9948 31.8889 31.9948 31.5088V25.9532C31.9948 24.5507 30.8548 23.4106 29.4523 23.4106H29.4794Z" fill="#353535"/>
</g>
<defs>
<clipPath id="clip0_675_887">
<rect width="56" height="56" fill="white"/>
</clipPath>
</defs>
</svg>
