<svg width="56" height="56" viewBox="0 0 56 56" fill="none" xmlns="http://www.w3.org/2000/svg">
<g clip-path="url(#clip0_675_878)">
<path d="M28 56C43.464 56 56 43.464 56 28C56 12.536 43.464 0 28 0C12.536 0 0 12.536 0 28C0 43.464 12.536 56 28 56Z" fill="white"/>
<path d="M27.9999 53.9877C42.3526 53.9877 53.9876 42.3526 53.9876 28C53.9876 13.6474 42.3526 2.01227 27.9999 2.01227C13.6473 2.01227 2.01221 13.6474 2.01221 28C2.01221 42.3526 13.6473 53.9877 27.9999 53.9877Z" fill="#FBB700"/>
<path d="M11.0928 20.9317V35.0581C11.0928 36.7266 11.9826 38.2737 13.4286 39.1029L25.6641 46.1712C27.1101 47.0104 28.8898 47.0104 30.3358 46.1712L42.5713 39.1029C44.0173 38.2636 44.9071 36.7266 44.9071 35.0581V20.9317C44.9071 19.2632 44.0173 17.7161 42.5713 16.8869L30.3358 9.81868C28.8898 8.97939 27.1101 8.97939 25.6641 9.81868L13.4286 16.8869C11.9826 17.7262 11.0928 19.2632 11.0928 20.9317Z" fill="white"/>
<path d="M28.0044 21.2273C29.3937 21.2273 30.5199 20.1011 30.5199 18.7119C30.5199 17.3227 29.3937 16.1965 28.0044 16.1965C26.6152 16.1965 25.489 17.3227 25.489 18.7119C25.489 20.1011 26.6152 21.2273 28.0044 21.2273Z" fill="#353535"/>
<path d="M23.0098 23.2451C23.0098 22.3674 23.7608 21.6436 24.6928 21.6436H31.3252C32.2481 21.6436 33.0081 22.3584 33.0081 23.2451V29.5427C33.0081 30.2033 32.4743 30.7371 31.8138 30.7371C31.1532 30.7371 30.6194 30.2033 30.6194 29.5427V24.72C30.6194 24.72 30.6013 24.6747 30.5742 24.6747C30.547 24.6747 30.5289 24.6747 30.5199 24.6838V38.6182C30.5199 39.2787 29.986 39.8126 29.3255 39.8126C28.665 39.8126 28.1311 39.2787 28.1311 38.6182V31.3976C28.1311 31.1895 28.0497 31.1895 28.0044 31.1895C27.9592 31.1895 27.8778 31.1895 27.8778 31.3976V38.6182C27.8778 39.2787 27.3439 39.8126 26.6834 39.8126C26.0229 39.8126 25.489 39.2787 25.489 38.6182V24.7109C25.489 24.7109 25.4709 24.6657 25.4438 24.6657C25.4347 24.6657 25.4076 24.6657 25.3985 24.72V29.5427C25.3985 30.2033 24.8647 30.7371 24.2041 30.7371C23.5436 30.7371 23.0098 30.2033 23.0098 29.5427V23.2451Z" fill="#353535"/>
</g>
<defs>
<clipPath id="clip0_675_878">
<rect width="56" height="56" fill="white"/>
</clipPath>
</defs>
</svg>
