<svg width="42" height="37" viewBox="0 0 42 37" fill="none" xmlns="http://www.w3.org/2000/svg">
<g clip-path="url(#clip0_675_812)">
<path d="M39.3583 25.42V12.262L36.9026 13.0911V25.42C35.376 25.9415 34.261 27.399 34.261 29.1106V35.743C34.261 36.425 34.8052 36.9866 35.4955 36.9866H40.7654C41.4424 36.9866 41.9999 36.4384 41.9999 35.743V29.1106C41.9999 27.399 40.8982 25.9415 39.3583 25.42Z" fill="#FBB700"/>
<path d="M19.832 18.0387L7.91162 14.0405V22.4781C7.91162 22.8124 8.04436 23.12 8.27003 23.3607C11.6683 26.7839 16.1948 28.6693 21.0001 28.6693C25.8054 28.6693 30.332 26.7839 33.7302 23.3607C33.9559 23.1333 34.0886 22.8124 34.0886 22.4781V14.0405L22.1683 18.0387C21.3585 18.3061 20.5355 18.2794 19.832 18.0387Z" fill="#FBB700"/>
<path d="M21 15.7521C21.1327 15.7521 21.2655 15.7254 21.385 15.6852L41.1504 9.05279C41.6549 8.87896 41.9867 8.41094 41.9867 7.87607C41.9867 7.34119 41.6416 6.87318 41.1504 6.69934L21.385 0.0668873C21.1327 -0.013344 20.854 -0.013344 20.6018 0.0668873L0.836283 6.69934C0.331858 6.87318 0 7.34119 0 7.87607C0 8.41094 0.345133 8.87896 0.836283 9.05279L20.6018 15.6852C20.7345 15.7254 20.854 15.7521 20.9867 15.7521H21Z" fill="#FBB700"/>
</g>
<defs>
<clipPath id="clip0_675_812">
<rect width="42" height="37" fill="white"/>
</clipPath>
</defs>
</svg>
