<svg width="49" height="36" viewBox="0 0 49 36" fill="none" xmlns="http://www.w3.org/2000/svg">
<g clip-path="url(#clip0_675_750)">
<path d="M27.6327 4.09087L25.9085 1.09601C25.2928 0.0308335 23.9227 -0.324226 22.8759 0.324144C21.1055 1.40476 19.72 3.01025 18.9041 4.89361C15.6867 3.41162 12.0845 3.50425 9.0364 4.89361C8.20511 3.01025 6.81962 1.40476 5.06467 0.324144C4.01786 -0.324226 2.63238 0.0308335 2.01661 1.09601L0.292445 4.09087C-0.061623 4.70836 -0.107806 5.43392 0.184685 6.08229C0.461783 6.73066 1.01598 7.17835 1.70872 7.33272C2.69395 7.54884 3.6484 7.96565 4.51048 8.5214C3.75616 9.52483 3.15578 10.6363 2.74014 11.8559C2.5708 12.3344 2.63238 12.8747 2.89408 13.307C1.78569 18.4785 4.34114 23.5883 8.95943 25.8885C8.05116 27.0617 7.58933 28.4665 7.58933 29.8868C7.58933 30.5351 7.98959 31.1217 8.57457 31.3687C8.4976 32.2795 9.14416 33.0823 10.0524 33.2058V33.6535C10.0524 34.9502 11.0992 36 12.3924 36C13.0081 36 13.5777 35.753 13.9934 35.367C14.409 35.7684 14.9786 36 15.5944 36C16.8875 36 17.9343 34.9502 17.9343 33.6535V33.2058C18.8426 33.0823 19.4891 32.2795 19.4121 31.3687C19.9971 31.1217 20.3974 30.5506 20.3974 29.8868C20.3974 29.0686 20.228 28.4356 20.228 28.4356C20.0125 27.494 19.5969 26.6449 19.0119 25.8885C19.4583 25.6723 19.8894 25.4253 20.305 25.1475C20.6437 24.9159 20.7361 24.4682 20.5051 24.1286C20.2742 23.789 19.8278 23.6964 19.4891 23.9279C17.8727 25.024 15.9792 25.5952 14.0088 25.5952C7.86643 25.5952 3.17118 20.0068 4.31035 13.8936H7.9588C11.8074 13.8936 15.4404 12.4734 18.273 9.89533L21.0901 12.7204C21.7983 13.4305 22.7065 13.8319 23.7071 13.8936C24.2767 16.9193 23.3993 19.8988 21.5366 22.1063C21.2749 22.4151 21.3056 22.8782 21.6289 23.1406C21.9368 23.403 22.3986 23.3722 22.6603 23.048C24.8463 20.4545 25.8623 16.9193 25.0926 13.3224C25.3543 12.8902 25.4159 12.3499 25.2466 11.8559C24.8309 10.6518 24.2459 9.52483 23.4762 8.5214C24.3383 7.96565 25.2928 7.54884 26.278 7.33272C27.7097 7.00853 28.4332 5.37217 27.6789 4.07543L27.6327 4.09087Z" fill="#FBB700"/>
<path d="M9.06726 16.9811V17.7839C9.06726 18.1852 9.39054 18.5248 9.80619 18.5248C10.2218 18.5248 10.5451 18.2007 10.5451 17.7839V16.9811C10.5451 16.5797 10.2218 16.2401 9.80619 16.2401C9.39054 16.2401 9.06726 16.5643 9.06726 16.9811Z" fill="#FBB700"/>
<path d="M17.4572 16.9811V17.7839C17.4572 18.1852 17.7804 18.5248 18.1961 18.5248C18.6117 18.5248 18.935 18.2007 18.935 17.7839V16.9811C18.935 16.5797 18.6117 16.2401 18.1961 16.2401C17.7804 16.2401 17.4572 16.5643 17.4572 16.9811Z" fill="#FBB700"/>
<path d="M14.5476 17.2899C14.4091 17.4442 14.2089 17.5369 13.9934 17.5369C13.7779 17.5369 13.5778 17.4442 13.4392 17.2899C13.1775 16.9811 12.7157 16.9502 12.4078 17.2127C12.0999 17.4751 12.0691 17.9382 12.3308 18.247C12.7465 18.7255 13.3622 19.0034 13.9934 19.0034C14.6246 19.0034 15.2403 18.7255 15.656 18.247C15.9177 17.9382 15.8869 17.4751 15.579 17.2127C15.2711 16.9502 14.8093 16.9811 14.5476 17.2899Z" fill="#FBB700"/>
<path d="M32.4819 19.2813V20.0995C32.4819 20.5008 32.8052 20.8405 33.2209 20.8405C33.6365 20.8405 33.9598 20.5163 33.9598 20.0995V19.2813C33.9598 18.8799 33.6365 18.5403 33.2209 18.5403C32.8052 18.5403 32.4819 18.8645 32.4819 19.2813Z" fill="#FBB700"/>
<path d="M41.0258 19.2813V20.0995C41.0258 20.5008 41.349 20.8405 41.7647 20.8405C42.1803 20.8405 42.5036 20.5163 42.5036 20.0995V19.2813C42.5036 18.8799 42.1803 18.5403 41.7647 18.5403C41.349 18.5403 41.0258 18.8645 41.0258 19.2813Z" fill="#FBB700"/>
<path d="M38.0547 19.59C37.9162 19.7598 37.7006 19.8525 37.4851 19.8525C37.2696 19.8525 37.0541 19.7598 36.9155 19.59C36.6538 19.2813 36.192 19.2504 35.8841 19.5128C35.5762 19.7753 35.5454 20.2384 35.8071 20.5471C36.2382 21.0411 36.8386 21.319 37.4851 21.319C38.1317 21.319 38.7475 21.0411 39.1631 20.5471C39.4248 20.2384 39.394 19.7753 39.0861 19.5128C38.7782 19.2504 38.3164 19.2813 38.0547 19.59Z" fill="#FBB700"/>
<path d="M47.3529 9.47854C47.7839 8.66036 48.138 7.8113 48.3843 6.94681C48.8153 5.4185 47.1374 4.18351 45.8134 5.04801C45.2746 5.40307 44.7051 5.72725 44.1047 6.00513C42.165 4.6312 39.8713 3.90564 37.4851 3.90564C31.1427 3.90564 25.9702 9.0926 25.9702 15.4528C25.9702 20.1149 28.7258 24.1286 32.6975 25.9502C32.2203 26.4751 31.82 27.0926 31.5275 27.7564C31.0349 28.8988 30.9887 29.7941 30.9887 30.6741C30.9887 31.9863 32.051 33.036 33.3441 33.036H33.3749V33.5609C33.3749 34.9039 34.4525 35.9845 35.7918 35.9845C36.4383 35.9845 37.0387 35.7221 37.4697 35.3053C37.9008 35.7221 38.5012 35.9845 39.1477 35.9845C40.487 35.9845 41.5646 34.9039 41.5646 33.5609V33.036H41.5954C42.9039 33.036 43.9507 31.9708 43.9507 30.6741C43.9507 29.7941 43.9046 28.8988 43.4119 27.7564C43.1194 27.0926 42.7346 26.4905 42.242 25.9657C42.75 25.7341 43.258 25.4562 43.7352 25.1475C44.0739 24.9314 44.1663 24.4682 43.9507 24.1286C43.7352 23.789 43.2734 23.6964 42.9347 23.9125C41.3029 24.9777 39.4094 25.5334 37.4543 25.5334C32.1587 25.5334 27.8175 21.4116 27.4327 16.1938H36.4537C38.7475 16.1475 40.9181 15.4837 42.7962 14.3259C44.1509 15.3756 45.7827 16.0086 47.4452 16.1629C47.2913 18.355 46.4292 20.4545 44.9668 22.1218C44.7051 22.4305 44.7205 22.8936 45.0283 23.1561C45.3362 23.4185 45.798 23.4031 46.0598 23.0943C47.9071 20.9794 48.9231 18.2779 48.9231 15.4682C48.9231 13.3533 48.3535 11.3156 47.2759 9.50941L47.3529 9.47854Z" fill="#FBB700"/>
</g>
<defs>
<clipPath id="clip0_675_750">
<rect width="49" height="36" fill="white"/>
</clipPath>
</defs>
</svg>
