<svg width="38" height="36" viewBox="0 0 38 36" fill="none" xmlns="http://www.w3.org/2000/svg">
<g clip-path="url(#clip0_675_980)">
<path d="M30.5996 1.26383V7.17447L25.5716 4.22553V1.26383C25.5716 0.561702 26.143 0 26.8286 0H29.3426C30.0409 0 30.5996 0.561702 30.5996 1.26383ZM21.915 18.3319C20.2898 18.3319 19.3375 19.5702 19.1978 19.9277C19.0709 20.2851 18.4868 20.2851 18.3471 19.9277C18.2202 19.5702 17.2679 18.3319 15.6427 18.3319C14.8936 18.3319 14.246 18.6255 13.7509 19.1489C13.1795 19.7872 12.9002 20.7191 13.0018 21.6511C13.3827 25.2383 18.0932 27.4213 18.7788 27.4213C19.4645 27.4213 24.175 25.2383 24.5559 21.6511C24.6575 20.7191 24.3781 19.7745 23.8068 19.1489C23.3243 18.6128 22.6768 18.3319 21.915 18.3319ZM33.1263 16.7745V33.2553C33.1263 34.7617 31.9074 36 30.3965 36H7.13581C5.63758 36 4.40598 34.7745 4.40598 33.2553V16.7745L18.7534 8.34894L33.1136 16.7745H33.1263ZM25.5589 17.7191C24.7844 16.8511 23.7052 16.3787 22.5117 16.3787H22.4863C20.6961 16.3787 19.4137 17.3617 18.7534 18.1787C18.0932 17.3617 16.8235 16.3787 15.0206 16.3787C13.8271 16.3787 12.7478 16.8511 11.9733 17.7191C11.0972 18.7021 10.6528 20.1319 10.8179 21.5489C11.3512 26.5787 17.6488 29.4 18.7661 29.4C19.8835 29.4 26.1811 26.5787 26.7271 21.5489C26.8794 20.1319 26.4477 18.7021 25.5716 17.7191H25.5589ZM37.202 15.1149C37.8749 13.9532 37.494 12.4723 36.3386 11.7957L19.985 2.18298C19.2359 1.73617 18.2963 1.73617 17.5472 2.18298L1.19368 11.783C0.0382642 12.4596 -0.342642 13.9532 0.330292 15.1021C1.00323 16.2638 2.48876 16.6468 3.63147 15.9702L18.7534 7.08511L33.8754 15.9702C34.2563 16.2 34.6753 16.3021 35.0943 16.3021C35.9196 16.3021 36.7322 15.8681 37.1893 15.1021L37.202 15.1149Z" fill="#FBB700"/>
</g>
<defs>
<clipPath id="clip0_675_980">
<rect width="37.5319" height="36" fill="white"/>
</clipPath>
</defs>
</svg>
