<svg width="56" height="56" viewBox="0 0 56 56" fill="none" xmlns="http://www.w3.org/2000/svg">
<g clip-path="url(#clip0_793_458)">
<path d="M28 56C43.464 56 56 43.464 56 28C56 12.536 43.464 0 28 0C12.536 0 0 12.536 0 28C0 43.464 12.536 56 28 56Z" fill="white"/>
<path d="M28.0001 53.9876C42.3527 53.9876 53.9878 42.3526 53.9878 27.9999C53.9878 13.6473 42.3527 2.01221 28.0001 2.01221C13.6474 2.01221 2.01233 13.6473 2.01233 27.9999C2.01233 42.3526 13.6474 53.9876 28.0001 53.9876Z" fill="#FBB700"/>
<path d="M11.0928 20.9317V35.0581C11.0928 36.7266 11.9826 38.2737 13.4286 39.1029L25.6641 46.1712C27.1101 47.0104 28.8898 47.0104 30.3358 46.1712L42.5713 39.1029C44.0173 38.2636 44.9071 36.7266 44.9071 35.0581V20.9317C44.9071 19.2632 44.0173 17.7161 42.5713 16.8869L30.3358 9.81868C28.8898 8.97939 27.1101 8.97939 25.6641 9.81868L13.4286 16.8869C11.9826 17.7262 11.0928 19.2632 11.0928 20.9317Z" fill="white"/>
<path d="M18.4 24.2V32.2C18.4 32.4209 18.2209 32.6 18 32.6H17.6C16.7164 32.6 16 31.8837 16 31V25.4C16 24.5164 16.7164 23.8 17.6 23.8H18C18.2209 23.8 18.4 23.9791 18.4 24.2Z" fill="#3C3C3B"/>
<path d="M40 25.4V31C40 31.8837 39.2836 32.6 38.4 32.6H38C37.7791 32.6 37.6 32.4209 37.6 32.2V24.2C37.6 23.9791 37.7791 23.8 38 23.8H38.4C39.2836 23.8 40 24.5164 40 25.4Z" fill="#3C3C3B"/>
<path d="M24.4 26.5H31.6C31.8209 26.5 32 26.6791 32 26.9V29.5C32 29.7209 31.8209 29.9 31.6 29.9H24.4C24.1791 29.9 24 29.7209 24 29.5V26.9C24 26.6791 24.1791 26.5 24.4 26.5Z" fill="#3C3C3B"/>
<path d="M23.2 23.6V32.8C23.2 33.682 22.4825 34.4 21.6 34.4H20.8C19.9175 34.4 19.2 33.682 19.2 32.8V23.6C19.2 22.718 19.9175 22 20.8 22H21.6C22.4825 22 23.2 22.718 23.2 23.6Z" fill="#3C3C3B"/>
<path d="M36.8 23.6V32.8C36.8 33.682 36.0825 34.4 35.2 34.4H34.4C33.5175 34.4 32.8 33.682 32.8 32.8V23.6C32.8 22.718 33.5175 22 34.4 22H35.2C36.0825 22 36.8 22.718 36.8 23.6Z" fill="#3C3C3B"/>
</g>
<defs>
<clipPath id="clip0_793_458">
<rect width="56" height="56" fill="white"/>
</clipPath>
</defs>
</svg>
