<svg width="56" height="56" viewBox="0 0 56 56" fill="none" xmlns="http://www.w3.org/2000/svg">
<g clip-path="url(#clip0_793_484)">
<path d="M28 56C43.464 56 56 43.464 56 28C56 12.536 43.464 0 28 0C12.536 0 0 12.536 0 28C0 43.464 12.536 56 28 56Z" fill="#FCFCFC"/>
<path d="M28 53.9876C42.3526 53.9876 53.9877 42.3526 53.9877 27.9999C53.9877 13.6473 42.3526 2.01221 28 2.01221C13.6474 2.01221 2.01227 13.6473 2.01227 27.9999C2.01227 42.3526 13.6474 53.9876 28 53.9876Z" fill="#FBB700"/>
<path d="M11.0928 20.9317V35.0581C11.0928 36.7266 11.9826 38.2737 13.4286 39.1029L25.6641 46.1712C27.1101 47.0104 28.8898 47.0104 30.3358 46.1712L42.5713 39.1029C44.0173 38.2636 44.9071 36.7266 44.9071 35.0581V20.9317C44.9071 19.2632 44.0173 17.7161 42.5713 16.8869L30.3358 9.81868C28.8898 8.97939 27.1101 8.97939 25.6641 9.81868L13.4286 16.8869C11.9826 17.7262 11.0928 19.2632 11.0928 20.9317Z" fill="white"/>
<g clip-path="url(#clip1_793_484)">
<path d="M18 23.9375V27.1172C18 27.4408 18.2623 27.7031 18.5859 27.7031H24.276V23.9375H18Z" fill="#3C3C3B"/>
<path d="M29.8187 19H26.1812L25.5536 22.7656H30.4463L29.8187 19Z" fill="#3C3C3B"/>
<path d="M36.7147 19.4006C36.6349 19.1614 36.4111 19 36.1588 19H31.0067L31.6344 22.7656H37.8363L36.7147 19.4006Z" fill="#3C3C3B"/>
<path d="M30.5523 23.9375H25.448V27.7031H30.5523V23.9375Z" fill="#3C3C3B"/>
<path d="M19.8411 19C19.5889 19 19.365 19.1614 19.2853 19.4007L18.1636 22.7656H24.3656L24.9931 19H19.8411Z" fill="#3C3C3B"/>
<path d="M31.724 23.9375V27.7031H37.4141C37.7376 27.7031 38 27.4408 38 27.1172V23.9375H31.724Z" fill="#3C3C3B"/>
<path d="M36.1589 32.1797H35.4896V28.875H34.3177V32.1797H21.6823V28.875H20.5104V32.1797H19.8412C19.5176 32.1797 19.2552 32.442 19.2552 32.7656C19.2552 33.0892 19.5176 33.3516 19.8412 33.3516H20.5104V38.4141C20.5104 38.7377 20.7727 39 21.0964 39H34.9037C35.2272 39 35.4896 38.7377 35.4896 38.4141V33.3516H36.159C36.4825 33.3516 36.7449 33.0892 36.7449 32.7656C36.7449 32.442 36.4825 32.1797 36.1589 32.1797Z" fill="#3C3C3B"/>
</g>
</g>
<defs>
<clipPath id="clip0_793_484">
<rect width="56" height="56" fill="white"/>
</clipPath>
<clipPath id="clip1_793_484">
<rect width="20" height="20" fill="white" transform="translate(18 19)"/>
</clipPath>
</defs>
</svg>
