<svg width="36" height="36" viewBox="0 0 36 36" fill="none" xmlns="http://www.w3.org/2000/svg">
<g clip-path="url(#clip0_675_994)">
<path d="M0.310221 9.72748L13.2239 0L26.1377 9.73936C26.4718 9.98878 26.5435 10.4758 26.2928 10.8202C26.0422 11.1528 25.5409 11.224 25.1948 10.9627L23.4284 9.62059L13.4626 2.11415C13.3194 2.00726 13.1285 2.00726 12.9733 2.11415L3.01948 9.62059C3.01948 9.62059 1.24115 10.9508 1.24115 10.9627C0.417636 11.5685 -0.501362 10.3689 0.298286 9.73936L0.310221 9.72748ZM32.1052 14.2646V13.065H29.6704V14.2646H32.1052ZM31.4607 17.5427V15.0604H30.3149V16.6757L31.4607 17.5427ZM35.0412 21.2366L24.1684 13.0412L23.4165 13.5995L13.2836 21.2366C12.7227 21.676 13.2717 22.5312 13.9042 22.2461C15.6229 20.9871 22.1633 16.0224 23.9177 14.7159C24.061 14.609 24.2519 14.609 24.4071 14.7159L25.6245 15.6305L32.8213 21.0584L34.3251 22.1867C34.5877 22.3768 34.9696 22.3174 35.1606 22.0798C35.3515 21.8067 35.2918 21.4385 35.0293 21.2484L35.0412 21.2366ZM22.7004 24.7285H17.5206V25.3461H22.7004V24.7285ZM23.512 34.2065V24.3365C23.512 24.1227 23.3329 23.9327 23.1062 23.9327H17.1148C16.8999 23.9327 16.709 24.1109 16.709 24.3365V34.2065H16.148V21.581L24.1564 15.5355L32.1649 21.581V34.2065H23.5H23.512ZM24.3832 31.7836C24.3832 32.0092 24.5622 32.1874 24.789 32.1874H30.8639C31.0907 32.1874 31.2697 32.0092 31.2697 31.7836V24.3365C31.2697 24.1227 31.0907 23.9327 30.8639 23.9327H24.789C24.5742 23.9327 24.3832 24.1109 24.3832 24.3365V31.7836ZM27.4147 28.4579H25.1829V31.3797H27.4147V28.4579ZM30.4462 28.4579H28.2144V31.3797H30.4462V28.4579ZM30.4462 24.7285H28.2144V27.6503H30.4462V24.7285ZM27.4147 24.7285H25.1829V27.6503H27.4147V24.7285ZM16.0525 36H33.7164V35.0023H16.0645C16.1838 35.323 16.1838 35.6912 16.0525 36ZM17.5206 26.1419H22.7004V34.1115H17.5206V26.1419ZM21.304 30.2514C21.304 30.774 22.0917 30.774 22.1156 30.2514V29.5982C22.1156 29.3725 21.9365 29.1943 21.7098 29.1943C21.483 29.1943 21.304 29.3725 21.304 29.5982V30.2514ZM14.9903 35.0023H14.692H14.68C14.4174 35.1092 14.1191 34.9192 14.1191 34.6341C14.131 34.0521 13.4984 33.6364 12.9972 33.8977C12.7823 34.0046 12.6749 34.1709 12.4124 34.0878C12.2811 34.0403 12.1737 33.9215 12.1617 33.7671C12.102 33.2801 11.5769 32.9594 11.1234 33.1257C10.8011 33.2207 10.634 33.6721 10.2521 33.4108C9.52408 32.8525 8.39025 33.2564 8.15155 34.1353C8.10381 34.3253 7.91285 34.4441 7.72188 34.4203C7.57866 34.3966 7.42351 34.4203 7.29222 34.4678C7.23255 34.4797 7.19674 34.5153 7.149 34.551C6.51645 34.9904 6.82676 36 7.61447 36H14.8948C15.0381 36 15.1694 35.9406 15.2529 35.8575C15.3364 35.7506 15.3961 35.6437 15.3961 35.4893C15.3723 35.2636 15.2171 35.0498 15.0023 35.0023H14.9903ZM7.47125 33.6008C7.90091 32.6506 9.02281 32.128 10.0373 32.4249C9.44053 31.6767 8.2709 31.4629 7.44738 31.9617C7.26835 32.0805 7.04159 32.2349 6.82676 32.0924C6.08678 31.2372 4.70232 31.5341 4.52329 32.6862C4.49942 32.9832 4.09363 33.1495 3.86686 32.9357C3.05528 32.2705 1.77823 32.8406 1.77823 33.9096C1.77823 34.1828 1.49179 34.4084 1.22922 34.3016C1.1218 34.254 1.00245 34.2422 0.895038 34.2422C-0.262661 34.2659 -0.262661 35.9644 0.895038 36H6.1942C5.59745 34.9904 6.32548 33.6721 7.48318 33.6127L7.47125 33.6008ZM14.501 22.8281L15.3603 22.1749V34.1947C15.1932 34.2065 15.0023 34.1709 14.8471 34.159C14.5965 33.3039 13.6059 32.7931 12.7585 33.1138C12.4243 32.4843 11.6485 32.1399 10.9443 32.318C10.2044 30.9997 8.40218 30.4771 7.07739 31.2491C6.06291 30.3939 4.40394 30.8096 3.89074 32.0211C3.81912 31.9855 3.75945 31.9617 3.6759 31.938V10.1432L13.2239 2.94556L22.772 10.1551V13.1125L12.8062 20.6189C11.3621 21.7473 12.9852 23.8971 14.501 22.84V22.8281ZM16.7687 16.5807C16.9835 16.5807 17.1744 16.4025 17.1744 16.1768V9.12174C17.1744 8.90795 16.9954 8.71792 16.7687 8.71792H9.67923C9.45247 8.71792 9.27344 8.89607 9.27344 9.12174V16.1768C9.27344 16.3906 9.45247 16.5807 9.67923 16.5807H16.7687ZM13.6178 12.2573H16.3629V9.53745H13.6178V12.2573ZM10.085 12.2573H12.8182V9.53745H10.085V12.2573ZM10.085 15.7849H12.8182V13.0531H10.085V15.7849ZM13.6178 15.7849H16.3629V13.0531H13.6178V15.7849Z" fill="#FBB700"/>
</g>
<defs>
<clipPath id="clip0_675_994">
<rect width="35.28" height="36" fill="white"/>
</clipPath>
</defs>
</svg>
