<svg width="43" height="36" viewBox="0 0 43 36" fill="none" xmlns="http://www.w3.org/2000/svg">
<g clip-path="url(#clip0_675_796)">
<path d="M14.8159 9.52355C14.7729 8.20403 14.988 5.8375 14.443 4.63272C16.6374 3.45662 15.7768 4.86299e-05 13.2525 4.86299e-05H7.07086C2.23739 -0.272461 0.086 4.34586 2.83978 7.75941V9.52355C3.16967 17.4694 14.486 17.4694 14.8159 9.52355ZM4.24536 7.08531C4.50353 6.08132 5.27803 5.24945 6.29636 4.94826H13.0517C13.5968 5.99527 13.3529 8.3618 13.4103 9.52355C13.1808 15.5905 4.47484 15.5905 4.24536 9.52355V7.08531Z" fill="#FBB700"/>
<path d="M40.8622 13.1234C40.4176 12.5497 40.3172 11.6318 40.5897 10.4127C40.8622 9.27962 41.6367 8.37603 41.522 7.05651C41.3929 5.62225 39.9013 3.87245 38.3666 3.87245C37.2048 3.87245 35.6845 2.78241 35.0821 1.80711C34.4367 0.788784 33.0311 0.0429675 31.6399 0.0142822C30.2774 0.0142822 29.0726 0.616673 28.2694 1.77843C27.1507 3.3848 26.2327 3.92982 25.2574 4.50353C22.8479 5.70831 22.2598 7.21428 22.7188 10.0254C24.5833 10.384 26.3044 11.4167 27.4519 12.937V10.6565C30.0479 11.4023 31.5682 11.9617 34.2503 9.7099C34.3937 9.6095 34.4797 9.43739 34.5084 9.27962C34.6232 8.54815 35.4837 7.97444 36.1722 8.34735C36.8463 9.46607 36.5594 11.847 36.6168 13.1091C36.6742 17.082 31.6829 19.1904 28.8861 16.4222C29.0726 18.0143 28.714 19.6637 27.8678 21.0262C28.3124 20.7394 28.8001 20.4956 29.3164 20.2948C30.7363 21.4995 33.3323 21.4995 34.7523 20.2948C37.5204 21.3274 39.428 23.9091 39.428 26.835V27.5378C39.428 29.1011 38.1658 30.3633 36.6025 30.3633H29.9762C29.3881 30.3633 28.9148 29.89 28.9148 29.3019C28.9148 28.7139 29.3881 28.2406 29.9762 28.2406H35.8853C36.4017 28.2406 36.7459 27.6812 36.5164 27.2222C36.2295 26.1179 36.3156 24.9131 36.7459 23.8374C36.8893 23.4788 36.7172 23.0629 36.3586 22.9195C34.9244 22.4462 34.867 25.9744 35.0104 26.835H29.9762C26.7204 26.9354 26.7204 31.6685 29.9762 31.7689H36.6742C37.1618 31.7545 37.6064 31.6685 38.008 31.525V32.4716C38.008 33.6477 37.0614 34.58 35.8997 34.58H30.6216C30.306 35.1107 29.9188 35.5983 29.4455 35.9856H35.8997C37.8503 35.9856 39.428 34.4079 39.428 32.4573V30.6645C41.4933 28.8573 41.0487 25.4007 39.973 23.1633C42.8415 20.6964 43.2431 16.0493 40.8909 13.0948L40.8622 13.1234Z" fill="#FBB700"/>
<path d="M21.1553 23.2638C26.2756 23.3499 29.5457 17.3833 26.0174 13.4391C22.3601 9.19368 14.8015 11.6606 14.8015 17.2686C14.8015 20.5674 17.6414 23.2638 21.141 23.2638H21.1553ZM16.2501 16.8096C16.5083 15.0598 18.1577 14.0845 19.8358 14.7443C20.5386 14.9594 21.2844 16.0638 21.7003 17.0104C22.3027 18.373 23.3497 19.9076 24.9991 20.1371C22.0876 23.5937 15.7768 21.4566 16.2501 16.8096Z" fill="#FBB700"/>
<path d="M4.94827 34.537C3.78651 34.537 2.8399 33.5904 2.8399 32.4287V27.9538C3.64309 28.4127 9.91082 28.1259 10.9435 28.1976C14.1993 28.0972 14.1993 23.3641 10.9435 23.2637H5.90922C6.05265 22.4175 5.98094 18.8605 4.56102 19.3482C4.20245 19.4916 4.03034 19.9076 4.17376 20.2661C4.60404 21.3418 4.6901 22.5466 4.40325 23.651C4.17376 24.0956 4.53233 24.6836 5.03432 24.6693H10.9435C12.3347 24.698 12.3347 26.7633 10.9435 26.7777H4.24548C2.68213 26.7777 1.41998 25.5155 1.41998 23.9522C1.1905 20.7968 3.01201 17.8279 6.09568 16.6948C7.52994 17.8996 10.1116 17.8996 11.5315 16.6948C12.22 16.953 12.8511 17.2972 13.4104 17.7275C13.3817 17.1825 13.4104 16.6231 13.4965 16.0924C12.9084 15.7338 12.263 15.447 11.5746 15.2319C11.3164 15.1458 11.0295 15.2319 10.8431 15.4183C9.92516 16.451 7.68771 16.451 6.76978 15.4183C6.58333 15.2175 6.31082 15.1458 6.03831 15.2319C2.45265 16.3936 0.014402 19.6064 0.014402 23.2637C-0.100339 24.698 0.344282 26.204 1.41998 27.1076V32.4143C1.41998 34.3649 2.99767 35.9426 4.94827 35.9426H12.8367C12.3777 35.541 11.9762 35.0677 11.675 34.537H4.94827Z" fill="#FBB700"/>
<path d="M26.0892 29.3019C26.0892 27.882 26.8637 26.6199 28.0254 25.9601C26.9928 24.741 25.5872 23.8087 23.9234 23.2924C23.6653 23.2207 23.3927 23.2924 23.2063 23.4788C22.733 23.9665 21.9728 24.2533 21.1696 24.2533C20.3665 24.2533 19.592 23.9665 19.133 23.4788C18.9465 23.2924 18.674 23.2207 18.4159 23.2924C14.7872 24.4111 12.3633 27.5665 12.3633 31.1234C12.0908 33.6478 13.941 35.9426 16.5943 35.9426H25.7593C27.6095 35.9426 29.1872 34.7808 29.7609 33.1601C27.7386 33.0454 26.1178 31.3529 26.1178 29.3019H26.0892Z" fill="#FBB700"/>
</g>
<defs>
<clipPath id="clip0_675_796">
<rect width="42.3968" height="36" fill="white"/>
</clipPath>
</defs>
</svg>
