<svg width="56" height="56" viewBox="0 0 56 56" fill="none" xmlns="http://www.w3.org/2000/svg">
<g clip-path="url(#clip0_793_491)">
<path d="M28 56C43.464 56 56 43.464 56 28C56 12.536 43.464 0 28 0C12.536 0 0 12.536 0 28C0 43.464 12.536 56 28 56Z" fill="white"/>
<path d="M28.0001 53.9876C42.3527 53.9876 53.9878 42.3526 53.9878 27.9999C53.9878 13.6473 42.3527 2.01221 28.0001 2.01221C13.6474 2.01221 2.01233 13.6473 2.01233 27.9999C2.01233 42.3526 13.6474 53.9876 28.0001 53.9876Z" fill="#FBB700"/>
<path d="M11.0928 20.9317V35.0581C11.0928 36.7266 11.9826 38.2737 13.4286 39.1029L25.6641 46.1712C27.1101 47.0104 28.8898 47.0104 30.3358 46.1712L42.5713 39.1029C44.0173 38.2636 44.9071 36.7266 44.9071 35.0581V20.9317C44.9071 19.2632 44.0173 17.7161 42.5713 16.8869L30.3358 9.81868C28.8898 8.97939 27.1101 8.97939 25.6641 9.81868L13.4286 16.8869C11.9826 17.7262 11.0928 19.2632 11.0928 20.9317Z" fill="white"/>
<path d="M26.5 26.875H21.25V25.012C21.25 24.5447 21.3985 24.091 21.6693 23.71C22.1928 22.9742 22.5565 22.165 22.6877 21.2372C22.3037 21.2042 22 20.8923 22 20.5C22 20.0853 22.3353 19.75 22.75 19.75H25C25.4148 19.75 25.75 20.0853 25.75 20.5C25.75 20.8923 25.4462 21.2035 25.063 21.2372C25.1942 22.165 25.558 22.9743 26.0815 23.7108C26.3523 24.091 26.5 24.5455 26.5 25.012V26.875Z" fill="#3C3C3B"/>
<path d="M33.226 26.8749H28.75C29.581 24.1644 30.6835 22.3907 31.9555 22.8114C33.0047 23.1587 33.3498 24.7292 33.226 26.8749Z" fill="#3C3C3B"/>
<path d="M37.375 28H18.625C18.418 28 18.25 28.168 18.25 28.375V29.125C18.25 29.332 18.418 29.5 18.625 29.5H19.75L20.3853 37.1245C20.4505 37.9023 21.1 38.5 21.88 38.5H34.12C34.9 38.5 35.5502 37.9023 35.6147 37.1245L36.25 29.5H37.375C37.582 29.5 37.75 29.332 37.75 29.125V28.375C37.75 28.168 37.582 28 37.375 28ZM25 35.5C25 35.9148 24.6648 36.25 24.25 36.25C23.8352 36.25 23.5 35.9148 23.5 35.5V32.5C23.5 32.0852 23.8352 31.75 24.25 31.75C24.6648 31.75 25 32.0852 25 32.5V35.5ZM28.75 35.5C28.75 35.9148 28.4148 36.25 28 36.25C27.5852 36.25 27.25 35.9148 27.25 35.5V32.5C27.25 32.0852 27.5852 31.75 28 31.75C28.4148 31.75 28.75 32.0852 28.75 32.5V35.5ZM32.5 35.5C32.5 35.9148 32.1648 36.25 31.75 36.25C31.3352 36.25 31 35.9148 31 35.5V32.5C31 32.0852 31.3352 31.75 31.75 31.75C32.1648 31.75 32.5 32.0852 32.5 32.5V35.5Z" fill="#3C3C3B"/>
</g>
<defs>
<clipPath id="clip0_793_491">
<rect width="56" height="56" fill="white"/>
</clipPath>
</defs>
</svg>
