<svg width="133" height="115" viewBox="0 0 133 115" fill="none" xmlns="http://www.w3.org/2000/svg">
<g clip-path="url(#clip0_675_400)">
<path d="M0.039978 114.83V107.65H2.06998V114.83H0.039978Z" fill="white"/>
<path d="M18.62 107.65V111.48L15.45 107.65H13.78V114.83H15.77V111L18.94 114.83H20.61V107.65H18.62Z" fill="white"/>
<path d="M40.65 114.83L40.63 107.65H38.96L36.5 111.8L33.97 107.65H32.3V114.83H34.18V111.13L36.01 114.12H36.92L38.77 111.02L38.78 114.83H40.65Z" fill="white"/>
<path d="M55.66 114.97C54.6 114.97 53.77 114.68 53.18 114.1C52.58 113.52 52.29 112.7 52.29 111.63V107.65H54.32V111.57C54.32 112.19 54.44 112.63 54.68 112.89C54.92 113.16 55.26 113.29 55.68 113.29C56.1 113.29 56.44 113.16 56.67 112.89C56.91 112.62 57.03 112.18 57.03 111.57V107.65H59.03V111.63C59.03 112.7 58.73 113.52 58.14 114.1C57.54 114.68 56.72 114.97 55.66 114.97Z" fill="white"/>
<path d="M72.68 113.26V111.95H75.87V110.43H72.68V109.22H76.3V107.65H70.67V114.83H76.43V113.26H72.68Z" fill="white"/>
<path d="M94.3399 111.8C94.1299 111.51 93.8399 111.29 93.4599 111.13C93.4099 111.11 93.3499 111.1 93.2999 111.08C93.5899 110.93 93.8399 110.73 94.0099 110.49C94.1999 110.21 94.2999 109.89 94.2999 109.52C94.2999 108.96 94.0699 108.51 93.5999 108.16C93.1299 107.81 92.4299 107.64 91.4899 107.64H87.8199V114.82H91.6999C92.6599 114.82 93.3999 114.65 93.8999 114.3C94.3999 113.95 94.66 113.47 94.66 112.85C94.66 112.43 94.5499 112.08 94.3499 111.79L94.3399 111.8ZM91.2199 109.12C91.5599 109.12 91.8199 109.18 91.9899 109.29C92.1599 109.4 92.2499 109.58 92.2499 109.81C92.2499 110.04 92.1599 110.22 91.9899 110.33C91.8199 110.45 91.5599 110.5 91.2199 110.5H89.8299V109.12H91.2199ZM92.3299 113.18C92.1499 113.3 91.8799 113.36 91.5299 113.36H89.8299V111.9H91.5299C91.8799 111.9 92.1399 111.96 92.3299 112.08C92.5099 112.2 92.5999 112.38 92.5999 112.63C92.5999 112.88 92.5099 113.06 92.3299 113.18Z" fill="white"/>
<path d="M105.97 114.83V107.65H108V113.22H111.43V114.83H105.97Z" fill="white"/>
<path d="M124.49 113.26V111.95H127.68V110.43H124.49V109.22H128.11V107.65H122.48V114.83H128.25V113.26H124.49Z" fill="white"/>
<path d="M93.83 18.05L61.99 0L36.54 14.4L34.17 15.74L30.15 18.05V63.73L38.01 63.71C38.26 63.71 38.52 63.69 38.77 63.68C40.41 63.59 43.91 63.34 45.13 63.23C45.25 63.22 45.36 63.21 45.48 63.2C46.95 63.04 48.47 62.85 50.02 62.6C50.31 62.55 50.6 62.5 50.89 62.45C52.53 62.15 55.72 61.52 56.91 61.22C56.94 61.22 56.97 61.2 57 61.2C57.02 61.2 57.03 61.2 57.05 61.19C58.76 60.73 60.42 60.11 62 59.34C63.68 58.52 65.26 57.52 66.72 56.33C66.73 56.33 67.1 56.01 67.3 55.83C67.83 55.36 68.57 54.69 68.88 54.38C69.73 53.57 70.54 52.72 71.31 51.83C71.94 51.11 72.54 50.36 73.12 49.59C73.41 49.2 73.7 48.8 73.98 48.39C74.68 47.4 75.32 46.38 75.92 45.32C75.93 45.3 75.94 45.28 75.95 45.26C76.86 43.67 77.53 42.1 77.94 40.56C78.18 39.75 78.33 38.94 78.4 38.15C78.48 37.61 78.51 37.08 78.51 36.55C78.51 36.3 78.5 36.05 78.49 35.8C78.41 34.31 78.13 32.87 77.65 31.52C77.32 30.58 76.91 29.69 76.41 28.84C75.75 27.69 74.92 26.62 73.98 25.68C73.79 25.47 73.57 25.27 73.36 25.08C72.74 24.51 72.07 24 71.37 23.53L71.32 23.56V23.5C68.67 21.75 65.46 20.74 62.01 20.74C58.56 20.74 55.37 21.75 52.72 23.48C52.72 23.48 51.27 24.52 50.65 25.1C50.45 25.28 50.23 25.48 50.04 25.68C49.09 26.63 48.27 27.69 47.6 28.85C47.1 29.7 46.69 30.59 46.36 31.53C45.89 32.88 45.6 34.32 45.52 35.81C45.51 36.06 45.5 36.31 45.5 36.56C45.5 37.09 45.53 37.61 45.6 38.15C45.69 38.94 45.85 39.76 46.07 40.57C46.49 42.11 47.16 43.69 48.06 45.27C48.07 45.29 48.09 45.31 48.1 45.33C48.7 46.39 49.34 47.41 50.04 48.41V35.62L62 28.85H62.01L64.37 30.19L73.99 35.64V38.32L62.01 31.53H62L54.46 35.81L52.72 36.8V53.23C51.77 52.7 50.88 52.08 50.04 51.39C49.38 50.84 48.74 50.25 48.16 49.61C47.12 48.5 46.23 47.24 45.49 45.89C44.79 44.61 44.24 43.25 43.85 41.82C43.64 41.04 43.47 40.23 43.37 39.41C43.25 38.58 43.2 37.75 43.2 36.89V35.82H43.23C43.32 34.34 43.56 32.9 43.97 31.54C44.25 30.62 44.59 29.72 45 28.86C45.15 28.53 45.32 28.21 45.49 27.88C46.29 26.41 47.29 25.06 48.45 23.86C48.94 23.33 49.48 22.84 50.04 22.38C50.12 22.32 50.19 22.25 50.26 22.2C50.91 21.66 51.62 21.17 52.35 20.74C52.47 20.66 52.59 20.59 52.71 20.54C55.45 18.96 58.63 18.08 62 18.08C65.37 18.08 68.57 18.97 71.31 20.54C71.43 20.6 73.08 21.67 73.74 22.2C73.74 22.2 75.06 23.33 75.55 23.85C76.71 25.05 77.7 26.4 78.51 27.88C78.69 28.2 78.85 28.52 79 28.86C79.42 29.72 79.76 30.62 80.03 31.54C80.44 32.9 80.68 34.34 80.77 35.82L80.8 39.52L87.38 43.25C90.26 44.88 93.84 42.8 93.84 39.49V18.1L93.83 18.05Z" fill="white"/>
<path d="M84.23 86.42L74.74 73.6C73.81 72.35 72.35 71.61 70.79 71.61H65.27V100.46H74.75V86.22C74.75 86.22 81.24 94.62 84.26 98.51C85.21 99.74 86.67 100.45 88.23 100.45H93.71V71.6H84.23V86.41V86.42Z" fill="white"/>
<path d="M119.83 71.73H110.31L97.75 100.47H107.6L108.76 97.46C109.74 94.9 112.2 93.22 114.94 93.22C117.86 93.22 120.47 95.07 121.45 97.82L122.39 100.46H132.41L119.85 71.72L119.83 71.73ZM113.39 86.28L115.07 82.44L116.75 86.26L113.4 86.28H113.39Z" fill="white"/>
<path d="M26 76.12L26.06 71.73H0.04L0 79.26L14 79.24L1.15 93.24C0.44 94.02 0.04 95.04 0.03 96.09L0 100.46H26.06V93.21H12.02L24.77 79.23C25.55 78.38 25.98 77.27 26 76.12Z" fill="white"/>
<path d="M56.82 75.69C55.43 74.39 53.79 73.38 51.89 72.67C50 71.96 47.92 71.61 45.66 71.61C43.4 71.61 41.36 71.96 39.45 72.67C37.54 73.38 35.9 74.38 34.5 75.69C33.11 76.99 32.02 78.51 31.25 80.26C30.47 82.01 30.09 83.93 30.09 86.03C30.09 88.13 30.48 90.02 31.25 91.78C32.03 93.54 33.11 95.07 34.5 96.37C35.89 97.67 37.54 98.68 39.45 99.39C41.35 100.1 43.44 100.45 45.7 100.45C47.96 100.45 50 100.1 51.89 99.39C53.78 98.68 55.42 97.68 56.82 96.37C58.21 95.07 59.3 93.54 60.07 91.78C60.85 90.02 61.23 88.1 61.23 86.03C61.23 83.96 60.84 82 60.07 80.26C59.29 78.51 58.21 76.99 56.82 75.69ZM51.43 89.13C51.11 89.99 50.67 90.72 50.1 91.32C49.53 91.92 48.87 92.37 48.11 92.69C47.35 93.01 46.54 93.17 45.66 93.17C44.78 93.17 43.97 93.01 43.22 92.69C42.46 92.37 41.8 91.91 41.23 91.32C40.66 90.72 40.22 89.99 39.9 89.13C39.58 88.27 39.42 87.29 39.42 86.21C39.42 85.13 39.58 84.15 39.9 83.29C40.22 82.43 40.66 81.7 41.23 81.1C41.8 80.5 42.46 80.05 43.22 79.73C43.98 79.41 44.79 79.25 45.66 79.25C46.53 79.25 47.35 79.41 48.11 79.73C48.87 80.05 49.53 80.51 50.1 81.1C50.67 81.7 51.11 82.43 51.43 83.29C51.75 84.15 51.91 85.13 51.91 86.21C51.91 87.29 51.75 88.27 51.43 89.13Z" fill="white"/>
</g>
<defs>
<clipPath id="clip0_675_400">
<rect width="132.4" height="114.97" fill="white"/>
</clipPath>
</defs>
</svg>
