<svg width="56" height="56" viewBox="0 0 56 56" fill="none" xmlns="http://www.w3.org/2000/svg">
<g clip-path="url(#clip0_793_525)">
<path d="M28 56C43.464 56 56 43.464 56 28C56 12.536 43.464 0 28 0C12.536 0 0 12.536 0 28C0 43.464 12.536 56 28 56Z" fill="white"/>
<path d="M28 53.9876C42.3526 53.9876 53.9877 42.3526 53.9877 27.9999C53.9877 13.6473 42.3526 2.01221 28 2.01221C13.6474 2.01221 2.01227 13.6473 2.01227 27.9999C2.01227 42.3526 13.6474 53.9876 28 53.9876Z" fill="#FBB700"/>
<path d="M11.0928 20.9317V35.0581C11.0928 36.7266 11.9826 38.2737 13.4286 39.1029L25.6641 46.1712C27.1101 47.0104 28.8898 47.0104 30.3358 46.1712L42.5713 39.1029C44.0173 38.2636 44.9071 36.7266 44.9071 35.0581V20.9317C44.9071 19.2632 44.0173 17.7161 42.5713 16.8869L30.3358 9.81868C28.8898 8.97939 27.1101 8.97939 25.6641 9.81868L13.4286 16.8869C11.9826 17.7262 11.0928 19.2632 11.0928 20.9317Z" fill="white"/>
<path fill-rule="evenodd" clip-rule="evenodd" d="M28 16.4927C28.5865 16.4927 29.1629 16.6747 29.6382 17.0084L37.1513 22.2666C37.6266 22.6003 37.9097 23.1463 37.9097 23.7227C37.9097 24.7036 37.1109 25.5024 36.13 25.5024H36.1098V30.9123H37.0098C37.5053 30.9123 37.9097 31.3168 37.9097 31.8123C37.9097 32.3078 37.5053 32.7122 37.0098 32.7122H18.9802C18.4847 32.7122 18.0802 32.3078 18.0802 31.8123C18.0802 31.3168 18.4847 30.9123 18.9802 30.9123H19.8801V25.5024H19.8599C18.879 25.5024 18.0802 24.7036 18.0802 23.7227C18.0802 23.1463 18.3633 22.6003 18.8386 22.2666L26.3518 17.0084C26.8372 16.6747 27.4034 16.4927 27.9899 16.4927H28ZM34.3099 25.5024V30.9123H31.61V25.5024H34.3099ZM29.8 25.5024V30.9123H26.19V25.5024H29.8ZM24.4002 25.5024V30.9123H21.7003V25.5024H24.4002ZM18.9903 34.5223C18.4948 34.5223 18.0903 34.9268 18.0903 35.4223C18.0903 35.9177 18.4948 36.3222 18.9903 36.3222H37.0199C37.5154 36.3222 37.9199 35.9177 37.9199 35.4223C37.9199 34.9268 37.5154 34.5223 37.0199 34.5223H18.9903Z" fill="#353535"/>
</g>
<defs>
<clipPath id="clip0_793_525">
<rect width="56" height="56" fill="white"/>
</clipPath>
</defs>
</svg>
