<svg width="56" height="56" viewBox="0 0 56 56" fill="none" xmlns="http://www.w3.org/2000/svg">
<g clip-path="url(#clip0_793_443)">
<path d="M28 56C43.464 56 56 43.464 56 28C56 12.536 43.464 0 28 0C12.536 0 0 12.536 0 28C0 43.464 12.536 56 28 56Z" fill="#FCFCFC"/>
<path d="M28.0001 53.9876C42.3527 53.9876 53.9878 42.3526 53.9878 27.9999C53.9878 13.6473 42.3527 2.01221 28.0001 2.01221C13.6474 2.01221 2.01233 13.6473 2.01233 27.9999C2.01233 42.3526 13.6474 53.9876 28.0001 53.9876Z" fill="#FBB700"/>
<path d="M11.0928 20.9317V35.0581C11.0928 36.7266 11.9826 38.2737 13.4286 39.1029L25.6641 46.1712C27.1101 47.0104 28.8898 47.0104 30.3358 46.1712L42.5713 39.1029C44.0173 38.2636 44.9071 36.7266 44.9071 35.0581V20.9317C44.9071 19.2632 44.0173 17.7161 42.5713 16.8869L30.3358 9.81868C28.8898 8.97939 27.1101 8.97939 25.6641 9.81868L13.4286 16.8869C11.9826 17.7262 11.0928 19.2632 11.0928 20.9317Z" fill="white"/>
<path d="M36 22.25H33.75V19.75H37C37.1989 19.75 37.3897 19.671 37.5303 19.5303C37.671 19.3897 37.75 19.1989 37.75 19C37.75 18.8011 37.671 18.6103 37.5303 18.4697C37.3897 18.329 37.1989 18.25 37 18.25H19C18.8011 18.25 18.6103 18.329 18.4697 18.4697C18.329 18.6103 18.25 18.8011 18.25 19C18.25 19.1989 18.329 19.3897 18.4697 19.5303C18.6103 19.671 18.8011 19.75 19 19.75H22.25V22.25H20C19.5367 22.2526 19.0931 22.4378 18.7655 22.7655C18.4378 23.0931 18.2526 23.5367 18.25 24V36C18.2526 36.4633 18.4378 36.9069 18.7655 37.2345C19.0931 37.5622 19.5367 37.7474 20 37.75H36C36.4633 37.7474 36.9069 37.5622 37.2345 37.2345C37.5622 36.9069 37.7474 36.4633 37.75 36V24C37.7474 23.5367 37.5622 23.0931 37.2345 22.7655C36.9069 22.4378 36.4633 22.2526 36 22.25ZM23.75 19.75H32.25V22.25H23.75V19.75ZM36.25 36C36.25 36.0663 36.2237 36.1299 36.1768 36.1768C36.1299 36.2237 36.0663 36.25 36 36.25H20C19.9337 36.25 19.8701 36.2237 19.8232 36.1768C19.7763 36.1299 19.75 36.0663 19.75 36V24C19.75 23.9337 19.7763 23.8701 19.8232 23.8232C19.8701 23.7763 19.9337 23.75 20 23.75H36C36.0663 23.75 36.1299 23.7763 36.1768 23.8232C36.2237 23.8701 36.25 23.9337 36.25 24V36ZM32.75 28.67V31.33C32.75 31.5289 32.671 31.7197 32.5303 31.8603C32.3897 32.001 32.1989 32.08 32 32.08H30.08V34C30.08 34.1989 30.001 34.3897 29.8603 34.5303C29.7197 34.671 29.5289 34.75 29.33 34.75H26.67C26.4711 34.75 26.2803 34.671 26.1397 34.5303C25.999 34.3897 25.92 34.1989 25.92 34V32.08H24C23.8011 32.08 23.6103 32.001 23.4697 31.8603C23.329 31.7197 23.25 31.5289 23.25 31.33V28.67C23.25 28.4711 23.329 28.2803 23.4697 28.1397C23.6103 27.999 23.8011 27.92 24 27.92H25.92V26C25.92 25.8011 25.999 25.6103 26.1397 25.4697C26.2803 25.329 26.4711 25.25 26.67 25.25H29.33C29.5289 25.25 29.7197 25.329 29.8603 25.4697C30.001 25.6103 30.08 25.8011 30.08 26V27.92H32C32.1989 27.92 32.3897 27.999 32.5303 28.1397C32.671 28.2803 32.75 28.4711 32.75 28.67Z" fill="#3C3C3B"/>
</g>
<defs>
<clipPath id="clip0_793_443">
<rect width="56" height="56" fill="white"/>
</clipPath>
</defs>
</svg>
