<svg width="56" height="56" viewBox="0 0 56 56" fill="none" xmlns="http://www.w3.org/2000/svg">
<g clip-path="url(#clip0_793_511)">
<path d="M28 56C43.464 56 56 43.464 56 28C56 12.536 43.464 0 28 0C12.536 0 0 12.536 0 28C0 43.464 12.536 56 28 56Z" fill="white"/>
<path d="M28.0001 53.9876C42.3527 53.9876 53.9878 42.3526 53.9878 27.9999C53.9878 13.6473 42.3527 2.01221 28.0001 2.01221C13.6474 2.01221 2.01233 13.6473 2.01233 27.9999C2.01233 42.3526 13.6474 53.9876 28.0001 53.9876Z" fill="#FBB700"/>
<path d="M11.0928 20.9317V35.0581C11.0928 36.7266 11.9826 38.2737 13.4286 39.1029L25.6641 46.1712C27.1101 47.0104 28.8898 47.0104 30.3358 46.1712L42.5713 39.1029C44.0173 38.2636 44.9071 36.7266 44.9071 35.0581V20.9317C44.9071 19.2632 44.0173 17.7161 42.5713 16.8869L30.3358 9.81868C28.8898 8.97939 27.1101 8.97939 25.6641 9.81868L13.4286 16.8869C11.9826 17.7262 11.0928 19.2632 11.0928 20.9317Z" fill="white"/>
<path d="M35.3678 23.7398C36.1672 23.5579 36.766 22.8131 36.766 21.9216C36.766 20.8943 35.969 20.0616 34.9866 20.0616H33.5799C33.5654 18.9198 32.6757 18.001 31.5799 18.001C31.3169 18.0021 31.0568 18.0563 30.8153 18.1605C30.5738 18.2646 30.3558 18.4165 30.1745 18.607C29.7985 18.9981 29.5859 19.5179 29.5799 20.0604H28.9739C29.2468 20.2811 29.4678 20.5592 29.6212 20.8749C29.7746 21.1906 29.8567 21.5362 29.8615 21.8872C29.8664 22.2382 29.7939 22.586 29.6493 22.9058C29.5047 23.2256 29.2915 23.5097 29.0248 23.7379C29.2915 23.9661 29.5047 24.2502 29.6493 24.5701C29.7939 24.8899 29.8664 25.2377 29.8615 25.5887C29.8567 25.9397 29.7746 26.2853 29.6212 26.601C29.4678 26.9167 29.2468 27.1948 28.9739 27.4155H29.5799C29.5945 28.5573 30.4842 29.4761 31.5799 29.4761C31.8426 29.4754 32.1025 29.4216 32.3439 29.318C32.5853 29.2143 32.8033 29.063 32.9848 28.8731C33.3615 28.4815 33.5744 27.9607 33.5799 27.4173H34.9878C35.9702 27.4173 36.7672 26.5846 36.7672 25.5567C36.7689 25.1318 36.6283 24.7185 36.3678 24.3828C36.1185 24.0596 35.7653 23.8325 35.3678 23.7398Z" fill="black"/>
<path d="M22.1861 27.4176C22.2006 28.5588 23.0903 29.4782 24.1861 29.4782C25.2818 29.4782 26.1715 28.557 26.1861 27.4176H27.5939C28.5764 27.4176 29.3733 26.5848 29.3733 25.557C29.3733 24.6667 28.7745 23.9206 27.9752 23.7388C28.7745 23.557 29.3733 22.8121 29.3733 21.9206C29.3733 20.8933 28.5764 20.0606 27.5939 20.0606H26.1861C26.1715 18.9188 25.2818 18 24.1861 18C23.0909 18 22.2012 18.9206 22.1861 20.0606H20.7794C19.797 20.0606 19 20.8933 19 21.9206C19 22.8115 19.5988 23.557 20.3982 23.7388C19.5988 23.9206 19 24.6655 19 25.557C19 26.5873 19.797 27.4176 20.7794 27.4176H22.1861Z" fill="black"/>
<path d="M35.2485 36.6061H32.2576V29.8679C31.8148 29.998 31.344 29.998 30.9012 29.8679V36.6061H24.8649V29.8667C24.4222 29.9976 23.9511 29.9976 23.5085 29.8667V36.6061H20.7164C20.5311 36.6061 20.3535 36.6796 20.2225 36.8106C20.0914 36.9415 20.0177 37.1191 20.0176 37.3043C20.0184 37.4891 20.0924 37.666 20.2233 37.7964C20.3543 37.9268 20.5316 38 20.7164 38H35.2485C35.4337 37.9999 35.6113 37.9262 35.7422 37.7951C35.8731 37.6641 35.9467 37.4865 35.9467 37.3012C35.9459 37.1166 35.872 36.9398 35.7411 36.8095C35.6103 36.6792 35.4331 36.6061 35.2485 36.6061Z" fill="black"/>
</g>
<defs>
<clipPath id="clip0_793_511">
<rect width="56" height="56" fill="white"/>
</clipPath>
</defs>
</svg>
