<svg width="56" height="56" viewBox="0 0 56 56" fill="none" xmlns="http://www.w3.org/2000/svg">
<g clip-path="url(#clip0_793_497)">
<path d="M28 56C43.464 56 56 43.464 56 28C56 12.536 43.464 0 28 0C12.536 0 0 12.536 0 28C0 43.464 12.536 56 28 56Z" fill="white"/>
<path d="M28.0001 53.9876C42.3527 53.9876 53.9878 42.3526 53.9878 27.9999C53.9878 13.6473 42.3527 2.01221 28.0001 2.01221C13.6474 2.01221 2.01233 13.6473 2.01233 27.9999C2.01233 42.3526 13.6474 53.9876 28.0001 53.9876Z" fill="#FBB700"/>
<path d="M11.0928 20.9317V35.0581C11.0928 36.7266 11.9826 38.2737 13.4286 39.1029L25.6641 46.1712C27.1101 47.0104 28.8898 47.0104 30.3358 46.1712L42.5713 39.1029C44.0173 38.2636 44.9071 36.7266 44.9071 35.0581V20.9317C44.9071 19.2632 44.0173 17.7161 42.5713 16.8869L30.3358 9.81868C28.8898 8.97939 27.1101 8.97939 25.6641 9.81868L13.4286 16.8869C11.9826 17.7262 11.0928 19.2632 11.0928 20.9317Z" fill="white"/>
<g clip-path="url(#clip1_793_497)">
<path d="M28.0759 21.0514C28.3994 21.0514 28.6617 20.7891 28.6617 20.4655V18.5859C28.6617 18.2623 28.3994 18 28.0759 18C27.7523 18 27.49 18.2623 27.49 18.5859V20.4655C27.49 20.7891 27.7523 21.0514 28.0759 21.0514Z" fill="#3C3C3B"/>
<path d="M23.7997 21.7224C23.9624 22.0022 24.321 22.097 24.6007 21.9344C24.8804 21.7717 24.9752 21.4131 24.8126 21.1334L23.8658 19.5055C23.7031 19.2258 23.3445 19.131 23.0649 19.2936C22.7852 19.4563 22.6903 19.8149 22.8529 20.0946L23.7997 21.7224Z" fill="#3C3C3B"/>
<path d="M19.595 23.7009C21.3713 24.7189 21.3162 24.7184 21.5257 24.7184C22.1217 24.7184 22.3386 23.9228 21.8175 23.6242L20.1777 22.6844C19.8969 22.5234 19.539 22.6206 19.3781 22.9013C19.2172 23.182 19.3143 23.54 19.595 23.7009Z" fill="#3C3C3B"/>
<path d="M20.4809 27.2686H18.5874C18.2639 27.2686 18.0016 27.5309 18.0016 27.8544C18.0016 28.178 18.2639 28.4403 18.5874 28.4403H20.481C20.8045 28.4403 21.0668 28.178 21.0668 27.8544C21.0668 27.5309 20.8045 27.2686 20.4809 27.2686Z" fill="#3C3C3B"/>
<path d="M34.841 24.7712L36.4808 23.8313C36.7615 23.6704 36.8586 23.3124 36.6977 23.0317C36.5368 22.751 36.1788 22.6538 35.8982 22.8148L34.2584 23.7546C33.9776 23.9155 33.8805 24.2735 34.0414 24.5542C34.2023 24.835 34.5604 24.9321 34.841 24.7712Z" fill="#3C3C3B"/>
<path d="M31.8247 22.0891C32.0265 22.0891 32.2229 21.9846 32.3317 21.7976L33.2785 20.1698C33.4411 19.8901 33.3462 19.5315 33.0666 19.3688C32.7869 19.2062 32.4283 19.3011 32.2656 19.5807L31.3189 21.2086C31.0907 21.6009 31.3775 22.0891 31.8247 22.0891Z" fill="#3C3C3B"/>
<path d="M34.4052 35.4136H21.5948C21.2713 35.4136 21.0089 35.6759 21.0089 35.9995V37.414C21.0089 37.7376 21.2713 37.9999 21.5948 37.9999H34.4052C34.7274 37.9999 34.9911 37.7362 34.9911 37.414V35.9995C34.9911 35.6772 34.7274 35.4136 34.4052 35.4136Z" fill="#3C3C3B"/>
<path d="M37.4126 27.4192H35.5191C35.1955 27.4192 34.9332 27.6815 34.9332 28.005C34.9332 28.3286 35.1955 28.5909 35.5191 28.5909H37.4126C37.7362 28.5909 37.9985 28.3286 37.9985 28.005C37.9985 27.6815 37.7362 27.4192 37.4126 27.4192Z" fill="#3C3C3B"/>
<path d="M28 28.3853C27.623 28.3853 27.3164 28.6919 27.3164 29.0688C27.3164 29.4454 27.623 29.7521 28 29.7521C28.377 29.7521 28.6836 29.4454 28.6836 29.0688C28.6836 28.6919 28.377 28.3853 28 28.3853Z" fill="#3C3C3B"/>
<path d="M27.4141 30.8289C26.6778 30.5832 26.1449 29.8867 26.1449 29.0687C26.1449 28.0457 26.977 27.2133 28 27.2133C29.0231 27.2133 29.8551 28.0457 29.8551 29.0687C29.8551 29.8867 29.3223 30.5832 28.586 30.8289V34.2422H33.7594L32.7856 25.2621C32.6883 24.3687 31.9367 23.6953 31.0379 23.6953H24.9617C24.0633 23.6953 23.3121 24.3687 23.2145 25.2621L22.2438 34.2422H27.4141V30.8289Z" fill="#3C3C3B"/>
</g>
</g>
<defs>
<clipPath id="clip0_793_497">
<rect width="56" height="56" fill="white"/>
</clipPath>
<clipPath id="clip1_793_497">
<rect width="20" height="20" fill="white" transform="translate(18 18)"/>
</clipPath>
</defs>
</svg>
