<svg width="56" height="56" viewBox="0 0 56 56" fill="none" xmlns="http://www.w3.org/2000/svg">
<g clip-path="url(#clip0_793_464)">
<path d="M28 56C43.464 56 56 43.464 56 28C56 12.536 43.464 0 28 0C12.536 0 0 12.536 0 28C0 43.464 12.536 56 28 56Z" fill="#FCFCFC"/>
<path d="M28.0001 53.9876C42.3527 53.9876 53.9878 42.3526 53.9878 27.9999C53.9878 13.6473 42.3527 2.01221 28.0001 2.01221C13.6474 2.01221 2.01233 13.6473 2.01233 27.9999C2.01233 42.3526 13.6474 53.9876 28.0001 53.9876Z" fill="#FBB700"/>
<path d="M11.0928 20.9317V35.0581C11.0928 36.7266 11.9826 38.2737 13.4286 39.1029L25.6641 46.1712C27.1101 47.0104 28.8898 47.0104 30.3358 46.1712L42.5713 39.1029C44.0173 38.2636 44.9071 36.7266 44.9071 35.0581V20.9317C44.9071 19.2632 44.0173 17.7161 42.5713 16.8869L30.3358 9.81868C28.8898 8.97939 27.1101 8.97939 25.6641 9.81868L13.4286 16.8869C11.9826 17.7262 11.0928 19.2632 11.0928 20.9317Z" fill="white"/>
<g clip-path="url(#clip1_793_464)">
<path d="M36.75 35.4999H19.25C18.79 35.4999 18.4166 35.1266 18.4166 34.6666C18.4166 34.2066 18.79 33.8333 19.25 33.8333H36.75C37.21 33.8333 37.5833 34.2066 37.5833 34.6666C37.5833 35.1266 37.21 35.4999 36.75 35.4999Z" fill="#3C3C3B"/>
<path d="M36.75 26.3334H19.25C18.79 26.3334 18.4166 25.9601 18.4166 25.5001C18.4166 25.0401 18.79 24.6667 19.25 24.6667H36.75C37.21 24.6667 37.5833 25.0401 37.5833 25.5001C37.5833 25.9601 37.21 26.3334 36.75 26.3334Z" fill="#3C3C3B"/>
<path d="M18.8333 38C18.3733 38 18 37.6267 18 37.1667V18.8333C18 18.3733 18.3733 18 18.8333 18C19.2933 18 19.6667 18.3733 19.6667 18.8333V37.1667C19.6667 37.6267 19.2933 38 18.8333 38Z" fill="#3C3C3B"/>
<path d="M37.1667 38C36.7067 38 36.3334 37.6267 36.3334 37.1667V18.8333C36.3334 18.3733 36.7067 18 37.1667 18C37.6267 18 38 18.3733 38 18.8333V37.1667C38 37.6267 37.6267 38 37.1667 38Z" fill="#3C3C3B"/>
<path d="M24.4584 28.8333V29.4583C24.4584 29.8033 24.1784 30.0833 23.8334 30.0833C23.4884 30.0833 23.2084 29.8033 23.2084 29.4583V28.8333H21.75C21.52 28.8333 21.3334 29.0199 21.3334 29.2499V32.5833C21.3334 32.8133 21.52 32.9999 21.75 32.9999H25.9167C26.1467 32.9999 26.3334 32.8133 26.3334 32.5833V29.2499C26.3334 29.0199 26.1467 28.8333 25.9167 28.8333H24.4584Z" fill="#3C3C3B"/>
<path d="M31.5417 28V28.625C31.5417 28.97 31.2617 29.25 30.9167 29.25C30.5717 29.25 30.2917 28.97 30.2917 28.625V28H28.4167C28.1867 28 28 28.1867 28 28.4167V32.5833C28 32.8133 28.1867 33 28.4167 33H33.4167C33.6467 33 33.8333 32.8133 33.8333 32.5833V28.4167C33.8333 28.1867 33.6467 28 33.4167 28H31.5417Z" fill="#3C3C3B"/>
<path d="M26.125 19.6667V20.2917C26.125 20.6367 25.845 20.9167 25.5 20.9167C25.155 20.9167 24.875 20.6367 24.875 20.2917V19.6667H22.5833C22.3533 19.6667 22.1666 19.8534 22.1666 20.0834V23.4167C22.1666 23.6467 22.3533 23.8334 22.5833 23.8334H28.4166C28.6466 23.8334 28.8333 23.6467 28.8333 23.4167V20.0834C28.8333 19.8534 28.6466 19.6667 28.4166 19.6667H26.125Z" fill="#3C3C3B"/>
</g>
</g>
<defs>
<clipPath id="clip0_793_464">
<rect width="56" height="56" fill="white"/>
</clipPath>
<clipPath id="clip1_793_464">
<rect width="20" height="20" fill="white" transform="translate(18 18)"/>
</clipPath>
</defs>
</svg>
