<svg width="56" height="56" viewBox="0 0 56 56" fill="none" xmlns="http://www.w3.org/2000/svg">
<g clip-path="url(#clip0_793_471)">
<path d="M28 56C43.464 56 56 43.464 56 28C56 12.536 43.464 0 28 0C12.536 0 0 12.536 0 28C0 43.464 12.536 56 28 56Z" fill="white"/>
<path d="M28.0001 53.9876C42.3527 53.9876 53.9878 42.3526 53.9878 27.9999C53.9878 13.6473 42.3527 2.01221 28.0001 2.01221C13.6474 2.01221 2.01233 13.6473 2.01233 27.9999C2.01233 42.3526 13.6474 53.9876 28.0001 53.9876Z" fill="#FBB700"/>
<path d="M11.0928 20.9317V35.0581C11.0928 36.7266 11.9826 38.2737 13.4286 39.1029L25.6641 46.1712C27.1101 47.0104 28.8898 47.0104 30.3358 46.1712L42.5713 39.1029C44.0173 38.2636 44.9071 36.7266 44.9071 35.0581V20.9317C44.9071 19.2632 44.0173 17.7161 42.5713 16.8869L30.3358 9.81868C28.8898 8.97939 27.1101 8.97939 25.6641 9.81868L13.4286 16.8869C11.9826 17.7262 11.0928 19.2632 11.0928 20.9317Z" fill="white"/>
<g clip-path="url(#clip1_793_471)">
<path d="M32.7099 32.9555V21.4082H30.5622V22.6898H29.3903V21.4082H23.3841V22.6898H22.2122V21.4082H20.106V37H31.4204C30.8066 36.0208 30.9357 34.7305 31.77 33.8953C31.77 33.8954 32.7099 32.9555 32.7099 32.9555ZM30.1474 31.118H28.2388V33.0266H24.5771V31.118H22.6685V27.4562H24.5771V25.5477H28.2388V27.4562H30.1474V31.118Z" fill="#3C3C3B"/>
<path d="M23.3841 21.175C23.3708 19.563 24.7198 18.1622 26.3872 18.1719C28.1696 18.1735 29.5003 19.6932 29.3904 21.4082H30.5622C30.6892 19.0691 28.8047 16.9905 26.3872 17C23.9695 16.9905 22.0852 19.0692 22.2122 21.4082H23.3841V21.175Z" fill="#3C3C3B"/>
<path d="M27.0669 26.7195H25.7489V28.628H23.8403V29.946H25.7489V31.8546H27.0669V29.946H28.9755V28.628H27.0669V26.7195Z" fill="#3C3C3B"/>
<path d="M32.5989 34.7243C31.8397 35.4779 32.2516 36.786 33.2958 36.9767C33.7134 37.0544 34.1618 36.9321 34.4841 36.6095L35.5805 35.513L33.6954 33.6274L32.5989 34.7243Z" fill="#3C3C3B"/>
<path d="M37.5063 31.7021C37.0101 31.1854 36.1168 31.1851 35.6208 31.7021L34.5243 32.7989L36.4094 34.6841L37.5063 33.5876C38.0233 33.0914 38.023 32.1984 37.5063 31.7021Z" fill="#3C3C3B"/>
</g>
</g>
<defs>
<clipPath id="clip0_793_471">
<rect width="56" height="56" fill="white"/>
</clipPath>
<clipPath id="clip1_793_471">
<rect width="20" height="20" fill="white" transform="translate(19 17)"/>
</clipPath>
</defs>
</svg>
