<svg width="56" height="56" viewBox="0 0 56 56" fill="none" xmlns="http://www.w3.org/2000/svg">
<g clip-path="url(#clip0_793_504)">
<path d="M28 56C43.464 56 56 43.464 56 28C56 12.536 43.464 0 28 0C12.536 0 0 12.536 0 28C0 43.464 12.536 56 28 56Z" fill="#FCFCFC"/>
<path d="M28.0001 53.9876C42.3527 53.9876 53.9878 42.3526 53.9878 27.9999C53.9878 13.6473 42.3527 2.01221 28.0001 2.01221C13.6474 2.01221 2.01233 13.6473 2.01233 27.9999C2.01233 42.3526 13.6474 53.9876 28.0001 53.9876Z" fill="#FBB700"/>
<path d="M11.0928 20.9317V35.0581C11.0928 36.7266 11.9826 38.2737 13.4286 39.1029L25.6641 46.1712C27.1101 47.0104 28.8898 47.0104 30.3358 46.1712L42.5713 39.1029C44.0173 38.2636 44.9071 36.7266 44.9071 35.0581V20.9317C44.9071 19.2632 44.0173 17.7161 42.5713 16.8869L30.3358 9.81868C28.8898 8.97939 27.1101 8.97939 25.6641 9.81868L13.4286 16.8869C11.9826 17.7262 11.0928 19.2632 11.0928 20.9317Z" fill="white"/>
<path d="M39.3153 24.7135L38.0311 19.5868C37.8693 18.9598 37.303 18.5149 36.6559 18.5149H19.3442C18.6971 18.5149 18.1308 18.9598 17.969 19.5868L16.6848 24.7135C16.6747 24.7641 16.6646 24.8248 16.6646 24.8854C16.6646 26.837 18.1712 28.4246 20.0318 28.4246C21.1138 28.4246 22.0744 27.8887 22.6913 27.0595C23.3081 27.8887 24.2687 28.4246 25.3507 28.4246C26.4327 28.4246 27.3933 27.8887 28.0102 27.0595C28.627 27.8887 29.5876 28.4246 30.6696 28.4246C31.7516 28.4246 32.7122 27.8887 33.3291 27.0595C33.9459 27.8887 34.9065 28.4246 35.9885 28.4246C37.8491 28.4246 39.3558 26.837 39.3558 24.8854C39.3558 24.8248 39.3558 24.7742 39.3356 24.7135H39.3153Z" fill="#353535"/>
<path d="M35.9682 29.8504C35.0076 29.8504 34.0874 29.5572 33.3088 29.0212C31.7617 30.1032 29.5472 30.1032 28 29.0212C26.4529 30.1032 24.2384 30.1032 22.6913 29.0212C21.9126 29.5572 21.0026 29.8504 20.0318 29.8504C19.3341 29.8504 18.6768 29.6886 18.0802 29.4055V36.9288C18.0802 37.7074 18.7173 38.3445 19.4959 38.3445H25.1586V32.6818H30.8213V38.3445H36.484C37.2626 38.3445 37.8996 37.7074 37.8996 36.9288V29.4055C37.303 29.6785 36.6457 29.8504 35.948 29.8504H35.9682Z" fill="#353535"/>
</g>
<defs>
<clipPath id="clip0_793_504">
<rect width="56" height="56" fill="white"/>
</clipPath>
</defs>
</svg>
