<svg width="32" height="32" viewBox="0 0 32 32" fill="none" xmlns="http://www.w3.org/2000/svg">
<g clip-path="url(#clip0_1069_419)">
<path d="M16 32C24.8366 32 32 24.8366 32 16C32 7.16344 24.8366 0 16 0C7.16344 0 0 7.16344 0 16C0 24.8366 7.16344 32 16 32Z" fill="white"/>
<path d="M16 30.8502C24.2015 30.8502 30.8502 24.2015 30.8502 16C30.8502 7.79853 24.2015 1.1499 16 1.1499C7.79853 1.1499 1.1499 7.79853 1.1499 16C1.1499 24.2015 7.79853 30.8502 16 30.8502Z" fill="#3C3C3B"/>
<g clip-path="url(#clip1_1069_419)">
<path d="M22.8302 8.61533V7.32307C22.8302 7.23738 22.7962 7.15521 22.7356 7.09462C22.675 7.03404 22.5928 7 22.5071 7C22.4215 7 22.3393 7.03404 22.2787 7.09462C22.2181 7.15521 22.1841 7.23738 22.1841 7.32307V8.61533C22.1841 8.70101 22.2181 8.78319 22.2787 8.84377C22.3393 8.90436 22.4215 8.9384 22.5071 8.9384C22.5928 8.9384 22.675 8.90436 22.7356 8.84377C22.7962 8.78319 22.8302 8.70101 22.8302 8.61533Z" fill="white"/>
<path d="M9.90785 8.61533V7.32307C9.90785 7.23738 9.87381 7.15521 9.81323 7.09462C9.75264 7.03404 9.67047 7 9.58478 7C9.4991 7 9.41693 7.03404 9.35634 7.09462C9.29576 7.15521 9.26172 7.23738 9.26172 7.32307V8.61533C9.26172 8.70101 9.29576 8.78319 9.35634 8.84377C9.41693 8.90436 9.4991 8.9384 9.58478 8.9384C9.67047 8.9384 9.75264 8.90436 9.81323 8.84377C9.87381 8.78319 9.90785 8.70101 9.90785 8.61533Z" fill="white"/>
<path d="M12.4922 8.61533C12.4922 8.70101 12.5262 8.78319 12.5868 8.84377C12.6474 8.90436 12.7296 8.9384 12.8153 8.9384C12.9009 8.9384 12.9831 8.90436 13.0437 8.84377C13.1043 8.78319 13.1383 8.70101 13.1383 8.61533V7.32307C13.1383 7.23738 13.1043 7.15521 13.0437 7.09462C12.9831 7.03404 12.9009 7 12.8153 7C12.7296 7 12.6474 7.03404 12.5868 7.09462C12.5262 7.15521 12.4922 7.23738 12.4922 7.32307V8.61533Z" fill="white"/>
<path d="M15.7227 7.32307V8.61533C15.7227 8.70101 15.7567 8.78319 15.8173 8.84377C15.8779 8.90436 15.96 8.9384 16.0457 8.9384C16.1314 8.9384 16.2136 8.90436 16.2742 8.84377C16.3348 8.78319 16.3688 8.70101 16.3688 8.61533V7.32307C16.3688 7.23738 16.3348 7.15521 16.2742 7.09462C16.2136 7.03404 16.1314 7 16.0457 7C15.96 7 15.8779 7.03404 15.8173 7.09462C15.7567 7.15521 15.7227 7.23738 15.7227 7.32307Z" fill="white"/>
<path d="M18.9536 7.32307V8.61533C18.9536 8.70101 18.9877 8.78319 19.0482 8.84377C19.1088 8.90436 19.191 8.9384 19.2767 8.9384C19.3624 8.9384 19.4445 8.90436 19.5051 8.84377C19.5657 8.78319 19.5997 8.70101 19.5997 8.61533V7.32307C19.5997 7.23738 19.5657 7.15521 19.5051 7.09462C19.4445 7.03404 19.3624 7 19.2767 7C19.191 7 19.1088 7.03404 19.0482 7.09462C18.9877 7.15521 18.9536 7.23738 18.9536 7.32307Z" fill="white"/>
<path d="M24.1225 8.29224H23.4764V8.6153C23.4764 8.87235 23.3742 9.11887 23.1925 9.30063C23.0107 9.48239 22.7642 9.5845 22.5072 9.5845C22.2501 9.5845 22.0036 9.48239 21.8218 9.30063C21.6401 9.11887 21.538 8.87235 21.538 8.6153V8.29224H20.2457V8.6153C20.2457 8.87235 20.1436 9.11887 19.9618 9.30063C19.7801 9.48239 19.5336 9.5845 19.2765 9.5845C19.0195 9.5845 18.7729 9.48239 18.5912 9.30063C18.4094 9.11887 18.3073 8.87235 18.3073 8.6153V8.29224H17.015V8.6153C17.015 8.87235 16.9129 9.11887 16.7312 9.30063C16.5494 9.48239 16.3029 9.5845 16.0458 9.5845C15.7888 9.5845 15.5423 9.48239 15.3605 9.30063C15.1788 9.11887 15.0766 8.87235 15.0766 8.6153V8.29224H13.7844V8.6153C13.7844 8.87235 13.6823 9.11887 13.5005 9.30063C13.3188 9.48239 13.0722 9.5845 12.8152 9.5845C12.5581 9.5845 12.3116 9.48239 12.1299 9.30063C11.9481 9.11887 11.846 8.87235 11.846 8.6153V8.29224H10.5537V8.6153C10.5537 8.87235 10.4516 9.11887 10.2699 9.30063C10.0881 9.48239 9.84157 9.5845 9.58453 9.5845C9.32748 9.5845 9.08096 9.48239 8.8992 9.30063C8.71744 9.11887 8.61533 8.87235 8.61533 8.6153V8.29224H7.9692C7.71215 8.29224 7.46563 8.39435 7.28387 8.57611C7.10211 8.75787 7 9.00439 7 9.26143V10.2306H25.0917V9.26143C25.0917 9.00439 24.9896 8.75787 24.8078 8.57611C24.6261 8.39435 24.3795 8.29224 24.1225 8.29224Z" fill="white"/>
<path d="M15.6463 19.9226L15.1504 22.2238L16.8103 21.6216L16.4452 19.9226H15.6463Z" fill="white"/>
<path d="M15.0767 17.9841L15.2876 19.2496C15.2889 19.2572 15.2929 19.264 15.2988 19.269C15.3047 19.2739 15.3122 19.2765 15.3199 19.2764H16.7737C16.7814 19.2765 16.7888 19.2739 16.7947 19.2691C16.8007 19.2642 16.8047 19.2574 16.806 19.2499L17.0151 17.9841H15.0767Z" fill="white"/>
<path d="M14.8481 23.6262L17.0683 22.8204L16.9477 22.2593L14.9896 22.9697L14.8481 23.6262Z" fill="white"/>
<path d="M7 21.5379C7 21.7949 7.10211 22.0414 7.28387 22.2232C7.46563 22.405 7.71215 22.5071 7.9692 22.5071H14.4283L14.7067 21.2148H11.5229C11.2659 21.2148 11.0194 21.1127 10.8376 20.9309C10.6558 20.7492 10.5537 20.5027 10.5537 20.2456V13.7843C10.5537 13.5273 10.6558 13.2807 10.8376 13.099C11.0194 12.9172 11.2659 12.8151 11.5229 12.8151H13.7844V12.492C13.7844 12.235 13.8865 11.9885 14.0683 11.8067C14.25 11.625 14.4965 11.5228 14.7536 11.5228H17.3381C17.5952 11.5228 17.8417 11.625 18.0234 11.8067C18.2052 11.9885 18.3073 12.235 18.3073 12.492V12.8151H20.5688C20.8258 12.8151 21.0723 12.9172 21.2541 13.099C21.4359 13.2807 21.538 13.5273 21.538 13.7843V20.2456C21.538 20.5027 21.4359 20.7492 21.2541 20.9309C21.0723 21.1127 20.8258 21.2148 20.5688 21.2148H17.385L17.6634 22.5071H24.1225C24.3795 22.5071 24.6261 22.405 24.8078 22.2232C24.9896 22.0414 25.0917 21.7949 25.0917 21.5379V10.8767H7V21.5379Z" fill="white"/>
<path d="M17.2051 23.4583L14.9985 24.2591L15.8401 24.9301C15.8972 24.9755 15.968 25.0001 16.0409 25.0001C16.1138 25.0001 16.1846 24.9755 16.2417 24.9301L17.3362 24.0669L17.2051 23.4583Z" fill="white"/>
<path d="M11.2002 20.2458C11.2002 20.3315 11.2342 20.4137 11.2948 20.4742C11.3554 20.5348 11.4376 20.5689 11.5233 20.5689H14.8463L15.003 19.8426C14.9106 19.7942 14.8307 19.7251 14.7695 19.6405C14.7084 19.556 14.6678 19.4584 14.6509 19.3554L14.4396 18.0903C14.4242 17.9978 14.4291 17.903 14.4541 17.8125C14.479 17.7221 14.5234 17.6382 14.584 17.5666C14.6447 17.495 14.7202 17.4375 14.8053 17.3981C14.8905 17.3586 14.9832 17.3382 15.077 17.3382H17.0154C17.1092 17.3382 17.2019 17.3586 17.287 17.3981C17.3721 17.4375 17.4477 17.495 17.5083 17.5666C17.569 17.6382 17.6133 17.7221 17.6383 17.8125C17.6632 17.903 17.6682 17.9978 17.6528 18.0903L17.4415 19.3558C17.4246 19.4586 17.3839 19.5562 17.3228 19.6407C17.2617 19.7252 17.1818 19.7943 17.0894 19.8426L17.2461 20.5689H20.5691C20.6548 20.5689 20.737 20.5348 20.7975 20.4742C20.8581 20.4137 20.8922 20.3315 20.8922 20.2458V16.5125C20.6966 16.6287 20.4736 16.6907 20.246 16.6921V17.0151C20.246 17.1865 20.178 17.3509 20.0568 17.472C19.9356 17.5932 19.7713 17.6613 19.5999 17.6613H18.9538C18.7824 17.6613 18.6181 17.5932 18.4969 17.472C18.3757 17.3509 18.3076 17.1865 18.3076 17.0151V16.6921H13.7847V17.0151C13.7847 17.1865 13.7166 17.3509 13.5955 17.472C13.4743 17.5932 13.31 17.6613 13.1386 17.6613H12.4925C12.3211 17.6613 12.1567 17.5932 12.0356 17.472C11.9144 17.3509 11.8463 17.1865 11.8463 17.0151V16.6921C11.6188 16.6907 11.3958 16.6287 11.2002 16.5125V20.2458Z" fill="white"/>
<path d="M18.9536 15.7227H19.6001V17.0149H18.9536V15.7227Z" fill="white"/>
<path d="M17.3383 12.1689H14.7537C14.668 12.1689 14.5859 12.203 14.5253 12.2636C14.4647 12.3242 14.4307 12.4063 14.4307 12.492V12.8151H17.6613V12.492C17.6613 12.4063 17.6273 12.3242 17.5667 12.2636C17.5061 12.203 17.4239 12.1689 17.3383 12.1689Z" fill="white"/>
<path d="M11.2002 13.7842V15.3996C11.2002 15.5709 11.2683 15.7353 11.3894 15.8565C11.5106 15.9776 11.675 16.0457 11.8463 16.0457V15.7226C11.8463 15.5513 11.9144 15.3869 12.0356 15.2658C12.1567 15.1446 12.3211 15.0765 12.4925 15.0765H13.1386C13.31 15.0765 13.4743 15.1446 13.5955 15.2658C13.7166 15.3869 13.7847 15.5513 13.7847 15.7226V16.0457H18.3076V15.7226C18.3076 15.5513 18.3757 15.3869 18.4969 15.2658C18.6181 15.1446 18.7824 15.0765 18.9538 15.0765H19.5999C19.7713 15.0765 19.9356 15.1446 20.0568 15.2658C20.178 15.3869 20.246 15.5513 20.246 15.7226V16.0457C20.4174 16.0457 20.5818 15.9776 20.7029 15.8565C20.8241 15.7353 20.8922 15.5709 20.8922 15.3996V13.7842C20.8922 13.6986 20.8581 13.6164 20.7975 13.5558C20.737 13.4952 20.6548 13.4612 20.5691 13.4612H11.5233C11.4376 13.4612 11.3554 13.4952 11.2948 13.5558C11.2342 13.6164 11.2002 13.6986 11.2002 13.7842Z" fill="white"/>
<path d="M12.4922 15.7227H13.1386V17.0149H12.4922V15.7227Z" fill="white"/>
</g>
</g>
<defs>
<clipPath id="clip0_1069_419">
<rect width="32" height="32" fill="white"/>
</clipPath>
<clipPath id="clip1_1069_419">
<rect width="18" height="18" fill="white" transform="translate(7 7)"/>
</clipPath>
</defs>
</svg>
