<svg width="56" height="56" viewBox="0 0 56 56" fill="none" xmlns="http://www.w3.org/2000/svg">
<g clip-path="url(#clip0_793_504)">
<path d="M28 56C43.464 56 56 43.464 56 28C56 12.536 43.464 0 28 0C12.536 0 0 12.536 0 28C0 43.464 12.536 56 28 56Z" fill="#FCFCFC"/>
<path d="M28.0001 53.9876C42.3527 53.9876 53.9878 42.3526 53.9878 27.9999C53.9878 13.6473 42.3527 2.01221 28.0001 2.01221C13.6474 2.01221 2.01233 13.6473 2.01233 27.9999C2.01233 42.3526 13.6474 53.9876 28.0001 53.9876Z" fill="#FBB700"/>
<path d="M11.0928 20.9317V35.0581C11.0928 36.7266 11.9826 38.2737 13.4286 39.1029L25.6641 46.1712C27.1101 47.0104 28.8898 47.0104 30.3358 46.1712L42.5713 39.1029C44.0173 38.2636 44.9071 36.7266 44.9071 35.0581V20.9317C44.9071 19.2632 44.0173 17.7161 42.5713 16.8869L30.3358 9.81868C28.8898 8.97939 27.1101 8.97939 25.6641 9.81868L13.4286 16.8869C11.9826 17.7262 11.0928 19.2632 11.0928 20.9317Z" fill="white"/>
</g>
<defs>
<clipPath id="clip0_793_504">
<rect width="56" height="56" fill="white"/>
</clipPath>
</defs>
</svg>
