<svg width="38" height="38" viewBox="0 0 38 38" fill="none" xmlns="http://www.w3.org/2000/svg">
<g clip-path="url(#clip0_711_582)">
<path d="M22.8318 18.2986C22.8928 17.8563 22.9294 17.414 22.9294 16.959V14.9497C23.2467 15.0129 23.5396 15.1772 23.7592 15.4173C24.3938 16.0744 24.3938 17.1486 23.7592 17.8057C23.5029 18.0711 23.1857 18.2354 22.8318 18.2859V18.2986Z" fill="#F49700"/>
<path d="M2.62366 8.7955C2.72128 3.867 6.63843 -0.063167 11.3976 1.89005e-05C19.4759 1.89005e-05 24.8941 3.85436 24.8941 9.579C24.8086 11.0702 24.3205 12.5108 23.4663 13.7114C23.2955 13.6608 23.1124 13.6229 22.9294 13.5976V12.8141C22.9294 11.3988 21.8799 10.2109 20.5132 10.1098C13.6185 9.61691 10.3847 6.33125 10.3481 6.30597C10.0919 6.04059 9.67697 6.04059 9.4207 6.30597C9.37189 6.35652 9.33528 6.41971 9.29867 6.48289C8.55429 7.91089 7.40722 9.07351 6.00388 9.79383C5.12526 10.2614 4.58833 11.1839 4.58833 12.2075V13.6103C4.39309 13.6355 4.19784 13.6734 4.00259 13.7366C2.62366 11.9169 2.62366 10.2614 2.62366 8.7955Z" fill="#F49700"/>
<path d="M3.27038 16.6305C3.27038 16.1756 3.44122 15.7459 3.7463 15.43C3.96595 15.1899 4.25882 15.0256 4.5761 14.9624V16.9717C4.5761 17.414 4.61271 17.869 4.67372 18.3113C3.86833 18.1975 3.25818 17.4772 3.25818 16.6305H3.27038Z" fill="#F49700"/>
<path d="M13.765 26.4623C14.4239 26.4623 15.0829 26.3865 15.7297 26.2349V26.8794C15.7297 27.8145 16.1201 28.7117 16.8035 29.331C16.0103 30.1777 14.8999 30.62 13.765 30.5315C12.6301 30.6073 11.5196 30.165 10.7264 29.331C11.4098 28.7117 11.8003 27.8145 11.8003 26.8794V26.2349C12.4471 26.3865 13.106 26.4623 13.765 26.4623Z" fill="#F49700"/>
<path d="M0.0245309 37.9621C0.0245309 37.9621 0.000125005 37.8989 0.012328 37.8736C0.14656 37.4061 0.26859 36.9511 0.402823 36.4962L0.707896 35.422C0.890941 34.5753 1.23262 33.7666 1.68413 33.0336C2.11124 32.4144 2.66037 31.8836 3.29492 31.4919C3.85626 31.138 4.47861 30.8979 5.12537 30.7716L9.51843 29.9501C10.0188 30.6578 11.2512 31.9089 13.7651 31.9089C16.2789 31.9089 17.5114 30.6578 18.0117 29.9375L19.6591 30.2534V35.9781C19.6591 36.711 19.9031 37.4313 20.3302 38.0127H5.89415V35.9781C5.89415 35.599 5.60128 35.2957 5.23519 35.2957C4.8691 35.2957 4.57623 35.599 4.57623 35.9781V38.0127H0.0977486C0.0977486 38.0127 0.0367339 38 0.012328 37.9747L0.0245309 37.9621Z" fill="#F49700"/>
<path d="M35.3886 28.1935V35.9654C35.3886 37.0901 34.51 37.9999 33.4239 37.9999H31.4593V31.8962C31.4593 30.7715 30.5807 29.8616 29.4946 29.8616H26.871C25.7849 29.8616 24.9063 30.7715 24.9063 31.8962V37.9999H22.9416C21.8555 37.9999 20.9769 37.0901 20.9769 35.9654V28.1935L28.1889 22.8606L35.4008 28.1935H35.3886Z" fill="#F49700"/>
<path d="M37.3532 27.8271C37.219 27.8271 37.0848 27.7765 36.9749 27.7007L28.1766 21.1926L19.3783 27.7007C19.0976 27.9282 18.6827 27.8776 18.463 27.5743C18.2434 27.2837 18.2922 26.854 18.5851 26.6265C18.5973 26.6265 18.6095 26.6013 18.6217 26.6013L27.7983 19.8151C28.0302 19.6508 28.3352 19.6508 28.5549 19.8151L37.7315 26.6013C38.0244 26.8161 38.0976 27.2458 37.8779 27.5491C37.7559 27.726 37.5607 27.8271 37.341 27.8271H37.3532Z" fill="#F49700"/>
</g>
<defs>
<clipPath id="clip0_711_582">
<rect width="38" height="38" fill="white"/>
</clipPath>
</defs>
</svg>
