<svg width="32" height="32" viewBox="0 0 32 32" fill="none" xmlns="http://www.w3.org/2000/svg">
<g clip-path="url(#clip0_1069_394)">
<path d="M16 32C24.8366 32 32 24.8366 32 16C32 7.16344 24.8366 0 16 0C7.16344 0 0 7.16344 0 16C0 24.8366 7.16344 32 16 32Z" fill="white"/>
<path d="M16 30.8502C24.2015 30.8502 30.8502 24.2015 30.8502 16C30.8502 7.79853 24.2015 1.1499 16 1.1499C7.79853 1.1499 1.1499 7.79853 1.1499 16C1.1499 24.2015 7.79853 30.8502 16 30.8502Z" fill="#3C3C3B"/>
<path d="M22.5441 9.17941C22.268 9.17941 22.0441 8.95555 22.0441 8.67941V8.22647C22.0441 7.96332 21.8308 7.75 21.5676 7.75C21.3045 7.75 21.0912 7.96332 21.0912 8.22647V8.67941C21.0912 8.95555 20.8673 9.17941 20.5912 9.17941H19.6853C19.4092 9.17941 19.1853 8.95555 19.1853 8.67941V8.22647C19.1853 7.96332 18.972 7.75 18.7088 7.75C18.4457 7.75 18.2324 7.96332 18.2324 8.22647V8.67941C18.2324 8.95555 18.0085 9.17941 17.7324 9.17941H16.8265C16.5503 9.17941 16.3265 8.95555 16.3265 8.67941V8.22647C16.3265 7.96332 16.1131 7.75 15.85 7.75C15.5869 7.75 15.3735 7.96332 15.3735 8.22647V8.67941C15.3735 8.95555 15.1497 9.17941 14.8735 9.17941H13.9676C13.6915 9.17941 13.4676 8.95555 13.4676 8.67941V8.22647C13.4676 7.96332 13.2543 7.75 12.9912 7.75C12.728 7.75 12.5147 7.96332 12.5147 8.22647V8.67941C12.5147 8.95555 12.2908 9.17941 12.0147 9.17941H11.1088C10.8327 9.17941 10.6088 8.95555 10.6088 8.67941V8.22647C10.6088 7.96332 10.3955 7.75 10.1324 7.75C9.86921 7.75 9.65588 7.96332 9.65588 8.22647V8.67941C9.65588 8.95555 9.43202 9.17941 9.15588 9.17941H8.25C7.97386 9.17941 7.75 9.40327 7.75 9.67941V10.5853C7.75 10.8614 7.97386 11.0853 8.25 11.0853H23.45C23.7261 11.0853 23.95 10.8614 23.95 10.5853V9.67941C23.95 9.40327 23.7261 9.17941 23.45 9.17941H22.5441Z" fill="white"/>
<path d="M15.072 18.9344C15.3757 19.0897 15.4739 19.1852 15.8502 19.1852C16.2306 19.1852 16.3241 19.0872 16.6463 18.9253C16.8683 18.8138 17.085 18.7462 17.3516 18.7202C17.8835 17.6234 17.0841 16.3264 15.85 16.3264C14.6163 16.3264 13.8161 17.6222 14.3484 18.7202C14.627 18.7473 14.8484 18.82 15.072 18.9344Z" fill="white"/>
<path d="M7.75 22.9501C7.75 23.5024 8.19772 23.9501 8.75 23.9501H22.95C23.5023 23.9501 23.95 23.5024 23.95 22.9501V13.0383C23.95 12.486 23.5023 12.0383 22.95 12.0383H8.75C8.19771 12.0383 7.75 12.486 7.75 13.0383V22.9501ZM19.3442 22.5207C18.786 22.5207 18.4847 22.3563 18.2426 22.2243C18.0438 22.1158 17.9125 22.0442 17.5973 22.0442C17.282 22.0442 17.1507 22.1158 16.952 22.2243C16.3326 22.6191 15.3661 22.618 14.7486 22.2243C14.5499 22.1158 14.4185 22.0442 14.1033 22.0442C13.788 22.0442 13.6566 22.1158 13.4578 22.2243C13.2952 22.313 13.1057 22.4163 12.8296 22.4746C12.5721 22.5289 12.3561 22.3074 12.3561 22.0442C12.3561 21.7811 12.5802 21.5876 12.8206 21.4805C12.8795 21.4542 12.937 21.4229 13.0015 21.3877C13.6209 20.9929 14.5874 20.9939 15.205 21.3877C15.4037 21.4961 15.535 21.5677 15.8503 21.5677C16.1655 21.5677 16.2969 21.4961 16.4956 21.3877C17.115 20.9929 18.0814 20.9939 18.6989 21.3877C18.7634 21.4229 18.8209 21.4542 18.8797 21.4804C19.1201 21.5876 19.3442 21.7811 19.3442 22.0442V22.5207C19.3442 22.5207 19.3442 22.5207 19.3442 22.5207ZM18.5453 14.8633C18.7314 14.6772 19.0331 14.6772 19.2192 14.8633C19.4052 15.0494 19.4052 15.3511 19.2192 15.5371C19.0331 15.7232 18.7314 15.7232 18.5453 15.5371C18.3592 15.351 18.3593 15.0493 18.5453 14.8633ZM15.3735 13.9442C15.3735 13.6811 15.5869 13.4677 15.85 13.4677C16.1131 13.4677 16.3265 13.6811 16.3265 13.9442C16.3265 14.2074 16.1131 14.4207 15.85 14.4207C15.5869 14.4207 15.3735 14.2074 15.3735 13.9442ZM12.4808 14.8633C12.6669 14.6772 12.9686 14.6772 13.1547 14.8633C13.3407 15.0494 13.3407 15.3511 13.1547 15.5371C12.9686 15.7232 12.6669 15.7232 12.4808 15.5371C12.2948 15.3511 12.2948 15.0494 12.4808 14.8633ZM10.6088 19.1854C10.6088 18.9222 10.8248 18.7007 11.0823 18.755C11.3585 18.8133 11.5479 18.9166 11.7106 19.0053C11.9094 19.1138 12.0407 19.1854 12.3561 19.1854C12.3973 19.1854 12.4356 19.1841 12.4714 19.1816C13.0103 19.144 13.2058 18.4166 13.2301 17.877C13.2908 16.5318 14.4018 15.3736 15.85 15.3736C17.2994 15.3736 18.4086 16.5326 18.4697 17.8766C18.4943 18.4163 18.6899 19.1439 19.2288 19.1816C19.2647 19.1841 19.303 19.1854 19.3442 19.1854C19.6595 19.1854 19.7908 19.1138 19.9895 19.0053C20.1522 18.9166 20.3416 18.8133 20.6177 18.7551C20.8752 18.7007 21.0912 18.9222 21.0912 19.1854C21.0912 19.4485 20.8671 19.642 20.6267 19.7492C20.5678 19.7754 20.5104 19.8067 20.4459 19.8419C19.8265 20.2367 18.8601 20.2357 18.2426 19.8419C18.0438 19.7335 17.9125 19.6619 17.5973 19.6619C17.282 19.6619 17.1507 19.7335 16.952 19.8419C16.3326 20.2367 15.3661 20.2357 14.7486 19.8419C14.5499 19.7335 14.4185 19.6619 14.1033 19.6619L14.0436 19.6628C13.7705 19.6715 13.6436 19.7406 13.4578 19.8419C12.8384 20.2367 11.8719 20.2357 11.2543 19.8419C11.1897 19.8067 11.1323 19.7754 11.0733 19.7491C10.8329 19.642 10.6088 19.4485 10.6088 19.1854Z" fill="white"/>
</g>
<defs>
<clipPath id="clip0_1069_394">
<rect width="32" height="32" fill="white"/>
</clipPath>
</defs>
</svg>
