<svg width="52" height="52" viewBox="0 0 52 52" fill="none" xmlns="http://www.w3.org/2000/svg">
<g clip-path="url(#clip0_711_490)">
<path d="M26 52C40.3594 52 52 40.3594 52 26C52 11.6406 40.3594 0 26 0C11.6406 0 0 11.6406 0 26C0 40.3594 11.6406 52 26 52Z" fill="#EBEBEB"/>
<path d="M26 50.1281C39.3256 50.1281 50.1282 39.3256 50.1282 26C50.1282 12.6744 39.3256 1.87183 26 1.87183C12.6744 1.87183 1.87186 12.6744 1.87186 26C1.87186 39.3256 12.6744 50.1281 26 50.1281Z" fill="#F49700"/>
<path d="M10.2952 19.4297V32.5607C10.2952 34.105 11.1188 35.537 12.4572 36.3044L23.8286 42.8746C25.167 43.6515 26.8142 43.6515 28.1526 42.8746L39.5241 36.3044C40.8625 35.5276 41.6861 34.105 41.6861 32.5607V19.4297C41.6861 17.8854 40.8625 16.4535 39.5241 15.686L28.1526 9.11582C26.8142 8.339 25.167 8.339 23.8286 9.11582L12.4572 15.686C11.1188 16.4628 10.2952 17.8854 10.2952 19.4297Z" fill="white"/>
<path d="M22.8553 26.5521C22.977 26.2433 23.0331 25.8689 23.108 25.4009C23.2203 24.568 23.3888 23.7443 23.6321 22.9395C23.9597 23.1828 24.3247 23.3606 24.7084 23.4823C24.5961 23.7818 24.3902 24.3527 24.1843 24.9423C23.5853 26.7206 23.6602 26.9452 23.6976 27.0575C23.8755 27.5816 23.8006 27.825 23.7257 27.8999C23.6883 27.9279 23.6321 27.9279 23.5947 27.8999C23.4262 27.8063 23.239 27.8531 23.1361 28.0309C23.108 28.087 22.9957 28.1526 22.9302 28.1526C22.6775 28.1245 22.4435 27.9654 22.4061 27.8437C22.3218 27.5723 22.5652 27.1324 22.7243 26.8423C22.7804 26.7299 22.8366 26.6457 22.8647 26.5615L22.8553 26.5521Z" fill="#353535"/>
<path d="M28.7142 15.1432C28.6487 15.162 28.5738 15.1713 28.5083 15.1713C28.3398 15.1713 28.1714 15.1526 28.0123 15.1152C27.6098 15.0403 27.2074 15.2275 27.1325 15.527V15.5644C27.0482 15.8545 26.9921 16.0885 26.6739 16.257C26.3089 16.0698 25.8503 16.2102 25.6631 16.5752C25.4665 16.9496 25.6069 17.4082 25.9813 17.5954C25.7941 17.8293 25.5882 18.054 25.3729 18.2692C25.1202 18.185 24.4745 17.9042 24.0439 17.2865C23.7819 16.8934 23.6415 16.4442 23.6415 15.9668C23.6228 15.2836 23.8193 14.7314 24.2218 14.3196C24.7272 13.8049 25.4572 13.6177 25.9251 13.6177C27.7128 13.6177 28.4334 14.1699 28.7048 14.4974C28.8733 14.7033 28.9107 14.8812 28.9014 14.9467C28.9014 15.0403 28.8171 15.1245 28.7236 15.1339L28.7142 15.1432Z" fill="#353535"/>
<path d="M27.4601 18.8401C27.1512 18.7933 26.8798 18.7652 26.702 18.9056C26.5148 19.0554 26.4118 19.3455 26.3557 19.5701C26.0375 19.4017 25.7005 19.2519 25.3636 19.1302C25.4572 18.9056 25.5508 18.6997 25.5882 18.6248C25.7286 18.4938 26.3463 17.8948 26.4773 17.5579V17.5392C26.4773 17.5392 26.4773 17.5298 26.4773 17.5205C26.4773 17.5205 26.4773 17.5205 26.4773 17.5111V17.4924C26.4773 17.4924 26.4773 17.483 26.4773 17.4737C26.4773 17.4643 26.4773 17.4643 26.4773 17.4549C26.4773 17.4549 26.4773 17.4456 26.4773 17.4362C26.4773 17.4362 26.4773 17.4269 26.4773 17.4175C26.4773 17.4081 26.4773 17.4081 26.468 17.3988C26.4586 17.3894 26.468 17.3894 26.4586 17.3801C26.4493 17.3707 26.4586 17.3707 26.4493 17.3613C26.4399 17.352 26.4399 17.352 26.4305 17.352C26.4212 17.352 26.4212 17.352 26.4118 17.3426C26.4025 17.3333 26.4025 17.3426 26.3931 17.3333C26.3931 17.3333 26.3837 17.3333 26.3744 17.3239C26.365 17.3239 26.3463 17.3239 26.3369 17.3146C26.2714 17.3146 26.2059 17.2865 26.1498 17.2397C26.1217 17.2116 26.0936 17.1835 26.0749 17.1554C26.0281 17.0899 26.0094 17.0151 26.0187 16.9402C26.0187 16.8747 26.0468 16.8092 26.0842 16.7624C26.1966 16.6032 26.4212 16.5752 26.5709 16.6875C26.5709 16.6875 26.5803 16.6875 26.5896 16.6968C26.5896 16.6968 26.599 16.6968 26.6084 16.6968C26.6084 16.6968 26.6177 16.6968 26.6271 16.6968C26.6364 16.6968 26.6364 16.6968 26.6458 16.6968C26.6552 16.6968 26.6552 16.6968 26.6645 16.6968C26.6739 16.6968 26.6739 16.6968 26.6832 16.6968C26.6926 16.6968 26.6926 16.6968 26.702 16.6968C26.7113 16.6968 26.7113 16.6968 26.7207 16.6968C26.7207 16.6968 26.73 16.6968 26.7394 16.6968H26.7581C27.3571 16.4535 27.4601 16.0323 27.5443 15.686V15.6486C27.5443 15.6486 27.7408 15.5082 27.9655 15.5457C28.1058 15.5737 28.2462 15.5924 28.396 15.6018C28.4802 15.8451 28.5177 16.1072 28.4896 16.3599C28.4709 16.5097 28.4896 16.65 28.5177 16.7998C28.5644 16.9683 28.6487 17.1367 28.761 17.2678C28.8452 17.3707 28.8639 17.4081 28.8639 17.4737C28.8639 17.4924 28.8265 17.5485 28.7329 17.6234C28.5364 17.7638 28.4334 17.9042 28.4053 18.0446C28.4053 18.0446 28.4053 18.0446 28.4053 18.0539C28.396 18.1382 28.3866 18.2224 28.3773 18.3066C28.3585 18.5687 28.3398 18.7372 28.1994 18.8401C28.0684 18.9431 27.7502 18.9056 27.4975 18.8682L27.4601 18.8401Z" fill="#353535"/>
<path d="M28.5738 26.9266C28.4896 26.8424 28.3773 26.7394 28.2088 26.571C28.1807 26.103 28.1339 25.5882 28.0778 25.0454C29.3225 26.6365 29.5752 26.6833 29.6969 26.702C30.1181 26.7675 30.2397 26.9266 30.2491 26.9921C30.2491 27.0483 30.2023 27.0764 30.1742 27.0857C29.9964 27.17 29.9309 27.3478 30.0245 27.535C30.0619 27.6192 30.0713 27.7596 30.0338 27.8251C29.9496 27.9655 29.594 28.0123 29.3693 27.9842C29.2102 27.9655 29.0605 27.666 28.9482 27.4507C28.8639 27.2823 28.7891 27.1419 28.6955 27.0483C28.6487 27.0015 28.6112 26.9641 28.5644 26.9173L28.5738 26.9266Z" fill="#353535"/>
<path d="M27.8157 26.6833C27.8438 27.067 27.8625 27.4226 27.8719 27.7221C27.8719 27.7783 27.8251 27.8345 27.7596 27.8345H24.1937C24.2405 27.6285 24.2311 27.3384 24.0814 26.9266C24.0252 26.6739 24.5587 25.036 25.1015 23.5947C25.1671 23.6041 25.2138 23.6134 25.2232 23.6134C25.3168 23.6228 25.401 23.576 25.4385 23.4918C25.5227 23.2859 26.2995 21.4889 26.2153 20.7776C26.2059 20.6653 26.103 20.5904 25.9907 20.5998C25.8784 20.6091 25.8035 20.7121 25.8128 20.8244C25.869 21.2923 25.3917 22.5652 25.1296 23.1829C24.8488 23.1174 24.2405 22.9396 23.7444 22.5184C24.0627 21.0771 24.4745 20.1786 25.139 19.4954C25.3917 19.589 25.9813 19.8136 26.3931 20.0756C26.6552 20.2441 26.7394 20.3471 26.7675 20.4032C26.7862 20.4313 26.7956 20.4594 26.8049 20.4874C27.3103 21.6106 27.6753 24.6149 27.8157 26.6552C27.8157 26.6645 27.8157 26.6739 27.8157 26.6833Z" fill="#353535"/>
<path d="M28.761 32.8228C29.1073 34.0957 29.4536 35.4154 29.8935 36.8473L28.5738 36.9409C28.1246 35.9769 25.3074 29.8747 24.7365 28.2368H27.432C27.9374 29.7437 28.3398 31.2411 28.761 32.8228Z" fill="#353535"/>
<path d="M28.4615 38.2419C28.4334 38.0173 28.4802 37.6991 28.5925 37.3528L30.1368 37.2405C30.7826 37.437 31.3722 37.7646 31.3535 37.9237C31.3254 38.1296 30.558 38.4197 28.5644 38.3449C28.5083 38.3449 28.4708 38.2887 28.4615 38.2326V38.2419Z" fill="#353535"/>
<path d="M25.6444 31.4938C25.1202 32.8883 24.0346 34.6759 23.3139 35.8645C23.0986 36.2108 22.9302 36.501 22.7991 36.7349L21.5076 36.0798C21.91 35.2842 23.4543 32.0179 24.1562 28.2461H24.3153C24.5025 28.817 25.036 30.0899 25.6537 31.5031L25.6444 31.4938Z" fill="#353535"/>
<path d="M20.684 37.2778C20.684 37.2778 20.6278 37.1842 20.6465 37.1374C20.7214 36.9596 20.9554 36.6882 21.2549 36.4167L22.743 37.1748C23.108 37.596 23.4169 38.1576 23.3045 38.298C23.1735 38.4664 22.3686 38.3354 20.6746 37.2778H20.684Z" fill="#353535"/>
</g>
<defs>
<clipPath id="clip0_711_490">
<rect width="52" height="52" fill="white"/>
</clipPath>
</defs>
</svg>
