<svg width="43" height="36" viewBox="0 0 43 36" fill="none" xmlns="http://www.w3.org/2000/svg">
<g clip-path="url(#clip0_711_705)">
<path d="M14.8159 9.52355C14.7729 8.20403 14.988 5.8375 14.443 4.63272C16.6374 3.45662 15.7768 4.86299e-05 13.2525 4.86299e-05H7.07086C2.23739 -0.272461 0.086 4.34586 2.83978 7.75941V9.52355C3.16967 17.4694 14.486 17.4694 14.8159 9.52355ZM4.24536 7.08531C4.50353 6.08132 5.27803 5.24945 6.29636 4.94826H13.0517C13.5968 5.99527 13.3529 8.3618 13.4103 9.52355C13.1808 15.5905 4.47484 15.5905 4.24536 9.52355V7.08531Z" fill="#F49700"/>
<path d="M40.8622 13.1236C40.4176 12.5499 40.3172 11.6319 40.5897 10.4128C40.8622 9.27974 41.6367 8.37616 41.522 7.05663C41.3929 5.62237 39.9013 3.87257 38.3666 3.87257C37.2048 3.87257 35.6845 2.78253 35.0821 1.80723C34.4367 0.788906 33.0311 0.0430896 31.6399 0.0144043C30.2774 0.0144043 29.0726 0.616795 28.2694 1.77855C27.1507 3.38492 26.2327 3.92994 25.2574 4.50365C22.8479 5.70843 22.2598 7.2144 22.7188 10.0256C24.5833 10.3841 26.3044 11.4168 27.4519 12.9371V10.6566C30.0479 11.4025 31.5682 11.9618 34.2503 9.71002C34.3937 9.60962 34.4797 9.43751 34.5084 9.27974C34.6232 8.54827 35.4837 7.97456 36.1722 8.34747C36.8463 9.4662 36.5594 11.8471 36.6168 13.1092C36.6742 17.0821 31.6829 19.1905 28.8861 16.4224C29.0726 18.0144 28.714 19.6638 27.8678 21.0264C28.3124 20.7395 28.8001 20.4957 29.3164 20.2949C30.7363 21.4997 33.3323 21.4997 34.7523 20.2949C37.5204 21.3275 39.428 23.9092 39.428 26.8351V27.5379C39.428 29.1013 38.1658 30.3634 36.6025 30.3634H29.9762C29.3881 30.3634 28.9148 29.8901 28.9148 29.3021C28.9148 28.714 29.3881 28.2407 29.9762 28.2407H35.8853C36.4017 28.2407 36.7459 27.6813 36.5164 27.2224C36.2295 26.118 36.3156 24.9132 36.7459 23.8375C36.8893 23.4789 36.7172 23.063 36.3586 22.9196C34.9244 22.4463 34.867 25.9746 35.0104 26.8351H29.9762C26.7204 26.9355 26.7204 31.6686 29.9762 31.769H36.6742C37.1618 31.7546 37.6064 31.6686 38.008 31.5252V32.4718C38.008 33.6479 37.0614 34.5801 35.8997 34.5801H30.6216C30.306 35.1108 29.9188 35.5985 29.4455 35.9857H35.8997C37.8503 35.9857 39.428 34.408 39.428 32.4574V30.6646C41.4933 28.8574 41.0487 25.4009 39.973 23.1634C42.8415 20.6965 43.2431 16.0495 40.8909 13.0949L40.8622 13.1236Z" fill="#F49700"/>
<path d="M21.1553 23.2637C26.2756 23.3497 29.5457 17.3832 26.0174 13.439C22.3601 9.19356 14.8015 11.6605 14.8015 17.2685C14.8015 20.5673 17.6414 23.2637 21.141 23.2637H21.1553ZM16.2501 16.8095C16.5083 15.0597 18.1577 14.0844 19.8358 14.7442C20.5386 14.9593 21.2844 16.0637 21.7003 17.0103C22.3027 18.3728 23.3497 19.9075 24.9991 20.137C22.0876 23.5936 15.7768 21.4565 16.2501 16.8095Z" fill="#F49700"/>
<path d="M4.94827 34.537C3.78651 34.537 2.8399 33.5904 2.8399 32.4287V27.9538C3.64309 28.4127 9.91082 28.1259 10.9435 28.1976C14.1993 28.0972 14.1993 23.3641 10.9435 23.2637H5.90922C6.05265 22.4175 5.98094 18.8605 4.56102 19.3482C4.20245 19.4916 4.03034 19.9076 4.17376 20.2661C4.60404 21.3418 4.6901 22.5466 4.40325 23.651C4.17376 24.0956 4.53233 24.6836 5.03432 24.6693H10.9435C12.3347 24.698 12.3347 26.7633 10.9435 26.7777H4.24548C2.68213 26.7777 1.41998 25.5155 1.41998 23.9522C1.1905 20.7968 3.01201 17.8279 6.09568 16.6948C7.52994 17.8996 10.1116 17.8996 11.5315 16.6948C12.22 16.953 12.8511 17.2972 13.4104 17.7275C13.3817 17.1825 13.4104 16.6231 13.4965 16.0924C12.9084 15.7338 12.263 15.447 11.5746 15.2319C11.3164 15.1458 11.0295 15.2319 10.8431 15.4183C9.92516 16.451 7.68771 16.451 6.76978 15.4183C6.58333 15.2175 6.31082 15.1458 6.03831 15.2319C2.45265 16.3936 0.014402 19.6064 0.014402 23.2637C-0.100339 24.698 0.344282 26.204 1.41998 27.1076V32.4143C1.41998 34.3649 2.99767 35.9426 4.94827 35.9426H12.8367C12.3777 35.541 11.9762 35.0677 11.675 34.537H4.94827Z" fill="#F49700"/>
<path d="M26.0892 29.3021C26.0892 27.8821 26.8637 26.62 28.0254 25.9602C26.9928 24.7411 25.5872 23.8088 23.9234 23.2925C23.6653 23.2208 23.3927 23.2925 23.2063 23.479C22.733 23.9666 21.9728 24.2535 21.1696 24.2535C20.3665 24.2535 19.592 23.9666 19.133 23.479C18.9465 23.2925 18.674 23.2208 18.4159 23.2925C14.7872 24.4112 12.3633 27.5666 12.3633 31.1236C12.0908 33.6479 13.941 35.9427 16.5943 35.9427H25.7593C27.6095 35.9427 29.1872 34.7809 29.7609 33.1602C27.7386 33.0455 26.1178 31.3531 26.1178 29.3021H26.0892Z" fill="#F49700"/>
</g>
<defs>
<clipPath id="clip0_711_705">
<rect width="42.3968" height="36" fill="white"/>
</clipPath>
</defs>
</svg>
