<svg width="36" height="36" viewBox="0 0 36 36" fill="none" xmlns="http://www.w3.org/2000/svg">
<g clip-path="url(#clip0_711_793)">
<path d="M14.322 22.0677C13.4695 20.2896 11.6549 19.0474 9.56019 19.0474H8.51283V22.2625C8.51283 22.8471 8.03786 23.3221 7.45329 23.3221C6.86871 23.3221 6.39375 22.8471 6.39375 22.2625V19.0474H5.26114C2.35045 19.0474 -0.012207 21.41 -0.012207 24.3207V31.7131C-0.012207 32.2977 0.462759 32.7727 1.04733 32.7727H2.17994V34.9526C2.17994 35.5372 2.65491 36.0122 3.23948 36.0122H9.56019V29.7645C9.56019 26.4033 11.4966 23.4682 14.322 22.0798V22.0677Z" fill="#F49700"/>
<path d="M17.9392 23.3221C14.4561 23.3587 11.6672 26.245 11.6672 29.7403V36.0001H24.333V29.655C24.333 26.1476 21.4588 23.2856 17.9392 23.3221Z" fill="#F49700"/>
<path d="M17.2572 12.4587C17.6713 12.8728 18.3411 12.8728 18.743 12.4587L23.9311 7.27064C26.5982 4.60352 24.6984 0 20.923 0C19.8269 0 18.7917 0.414073 18.0001 1.16915C17.2085 0.414073 16.1733 0 15.0772 0C11.2653 0 9.41419 4.6157 12.0691 7.27064L17.2572 12.4587Z" fill="#F49700"/>
<path d="M32.5533 13.2746H33.8321C33.552 10.3031 30.8118 8.11091 27.7915 8.56152C27.8159 11.1677 29.9349 13.2746 32.5533 13.2746Z" fill="#F49700"/>
<path d="M23.3098 13.7741C23.3098 16.6848 25.6724 19.0474 28.5831 19.0474C30.9336 19.0474 32.9187 17.5007 33.6007 15.3817H32.5412C29.0337 15.3817 26.1352 12.7389 25.7212 9.34106C24.2719 10.2788 23.2976 11.9108 23.2976 13.7741H23.3098Z" fill="#F49700"/>
<path d="M7.4169 19.0474C10.3293 19.0474 12.6902 16.6865 12.6902 13.7741C12.6902 10.8617 10.3293 8.50073 7.4169 8.50073C4.50451 8.50073 2.14355 10.8617 2.14355 13.7741C2.14355 16.6865 4.50451 19.0474 7.4169 19.0474Z" fill="#F49700"/>
<path d="M28.5588 21.1665C29.6793 21.1786 30.4465 20.0826 30.0933 19.0596H27.0609C26.7199 20.0826 27.4627 21.1543 28.5588 21.1665Z" fill="#F49700"/>
<path d="M32.2856 19.291C32.4439 21.3857 30.7998 23.2734 28.5833 23.2734C28.5711 23.2734 28.5467 23.2734 28.5345 23.2734C26.3424 23.2491 24.7226 21.3736 24.881 19.291C23.4682 19.7294 22.3113 20.7403 21.678 22.0677C24.4912 23.4317 26.4398 26.3303 26.4398 29.6672V36.0123H32.7605C33.3451 36.0123 33.8201 35.5373 33.8201 34.9527V32.7727H34.9527C35.5372 32.7727 36.0122 32.2978 36.0122 31.7132V24.333C36.0122 21.9703 34.4412 19.9608 32.2977 19.291H32.2856Z" fill="#F49700"/>
<path d="M17.9999 23.3221C19.7487 23.3221 21.1664 21.9045 21.1664 20.1557C21.1664 18.4069 19.7487 16.9893 17.9999 16.9893C16.2512 16.9893 14.8335 18.4069 14.8335 20.1557C14.8335 21.9045 16.2512 23.3221 17.9999 23.3221Z" fill="#F49700"/>
</g>
<defs>
<clipPath id="clip0_711_793">
<rect width="36" height="36" fill="white"/>
</clipPath>
</defs>
</svg>
