<svg width="52" height="52" viewBox="0 0 52 52" fill="none" xmlns="http://www.w3.org/2000/svg">
<g clip-path="url(#clip0_741_3074)">
<path d="M26 52C40.3594 52 52 40.3594 52 26C52 11.6406 40.3594 0 26 0C11.6406 0 0 11.6406 0 26C0 40.3594 11.6406 52 26 52Z" fill="white"/>
<path d="M26 50.1281C39.3256 50.1281 50.1281 39.3256 50.1281 26C50.1281 12.6744 39.3256 1.87183 26 1.87183C12.6744 1.87183 1.87183 12.6744 1.87183 26C1.87183 39.3256 12.6744 50.1281 26 50.1281Z" fill="#F49700"/>
<path d="M10.2952 19.4297V32.5607C10.2952 34.105 11.1188 35.537 12.4572 36.3044L23.8286 42.8746C25.167 43.6515 26.8142 43.6515 28.1526 42.8746L39.5241 36.3044C40.8625 35.5276 41.6861 34.105 41.6861 32.5607V19.4297C41.6861 17.8854 40.8625 16.4535 39.5241 15.686L28.1526 9.11582C26.8142 8.339 25.167 8.339 23.8286 9.11582L12.4572 15.686C11.1188 16.4628 10.2952 17.8854 10.2952 19.4297Z" fill="white"/>
<g clip-path="url(#clip1_741_3074)">
<path fill-rule="evenodd" clip-rule="evenodd" d="M20.7085 28.3889C20.0779 28.3889 19.5801 28.8889 19.5801 29.5222C19.5801 30.1556 20.0779 30.6556 20.7085 30.6556C21.3391 30.6556 21.8369 30.1556 21.8369 29.5222C21.8369 28.8889 21.3391 28.3889 20.7085 28.3889ZM20.7085 30.0222C20.443 30.0222 20.2107 29.8 20.2107 29.5222C20.2107 29.2445 20.4319 29.0222 20.7085 29.0222C20.9851 29.0222 21.2063 29.2445 21.2063 29.5222C21.2063 29.8 20.9851 30.0222 20.7085 30.0222Z" fill="#353535"/>
<path fill-rule="evenodd" clip-rule="evenodd" d="M33.9619 28.3889C33.3313 28.3889 32.8335 28.8889 32.8335 29.5222C32.8335 30.1556 33.3313 30.6556 33.9619 30.6556C34.5925 30.6556 35.035 30.1556 35.035 29.5222C35.035 28.8889 34.5815 28.3889 33.9619 28.3889ZM33.9619 30.0222C33.6964 30.0222 33.4641 29.8 33.4641 29.5222C33.4641 29.2445 33.6853 29.0222 33.9619 29.0222C34.2385 29.0222 34.4155 29.2 34.4155 29.5222C34.4155 29.7889 34.2385 30.0222 33.9619 30.0222Z" fill="#353535"/>
<path fill-rule="evenodd" clip-rule="evenodd" d="M23.1755 25.2778H21.0625C20.8854 25.2778 20.7527 25.4112 20.7527 25.5889C20.7527 25.7667 20.8854 25.9001 21.0625 25.9001H23.1755C23.3525 25.9001 23.4852 25.7667 23.4852 25.5889C23.4852 25.4112 23.3525 25.2778 23.1755 25.2778Z" fill="#353535"/>
<path fill-rule="evenodd" clip-rule="evenodd" d="M37.9999 26.9111C37.9999 26.9111 37.9999 26.8778 37.9999 26.8667C37.9999 26.8333 37.9999 26.8111 37.9999 26.7889C37.9999 26.7556 37.9999 26.7111 37.9889 26.6778C37.9225 26.1556 37.7123 25.6889 37.4025 25.3C37.1923 25.0333 36.9489 24.8 36.6613 24.6111C36.617 24.5889 36.5839 24.5778 36.5396 24.5667C36.1192 24.3333 35.6435 24.2 35.1346 24.2H31.8489L29.6031 20.1778C29.5588 20.0444 29.4261 20 29.3376 20H20.2549C20.1221 20 19.9893 20.0889 19.9451 20.2222L18.8388 24.1889H16.5709C16.3939 24.1889 16.2611 24.3222 16.2611 24.5V24.7667H15.9513C15.4093 24.7667 15.011 25.1778 15.011 25.7111V28.3333C15.011 28.8778 15.4203 29.2778 15.9513 29.2778H16.2611V29.5444C16.2611 29.7222 16.3939 29.8556 16.5709 29.8556H18.2635C18.4405 31.0444 19.4804 31.9778 20.7084 31.9778C21.9364 31.9778 22.9764 31.0444 23.1534 29.8556H31.517C31.694 31.0444 32.7339 31.9778 33.9619 31.9778C35.1899 31.9778 36.2298 31.0444 36.4068 29.8556H37.6902C37.8672 29.8556 37.9999 29.7222 37.9999 29.5444V27.0222C37.9999 27.0222 37.9999 26.9333 37.9999 26.9V26.9111ZM36.1745 25.0778C36.2741 25.1333 36.3737 25.1889 36.4622 25.2556C36.4622 25.2556 36.4732 25.2556 36.4843 25.2667C36.5064 25.2889 36.5285 25.3 36.5507 25.3222C36.5839 25.3444 36.606 25.3667 36.6392 25.3889C36.6724 25.4222 36.7055 25.4556 36.7387 25.4778C37.0043 25.7556 37.1923 26.0778 37.2919 26.4444C37.2366 26.4556 37.1813 26.4667 37.137 26.4667C36.5507 26.4667 36.1081 26.0111 36.1081 25.4333C36.1081 25.2889 36.1303 25.1667 36.1745 25.0556V25.0778ZM31.1409 24.2H25.6868V20.6333H29.1495L31.1409 24.2ZM20.4761 20.6333H25.0562V24.2H19.5026L20.4651 20.6333H20.4761ZM15.9403 28.6667C15.7633 28.6667 15.6305 28.5333 15.6305 28.3556V25.7333C15.6305 25.5556 15.7633 25.4222 15.9403 25.4222H16.25V28.6667H15.9403ZM20.7084 31.3667C19.6796 31.3667 18.8609 30.5556 18.8609 29.5111C18.8609 28.4667 19.6685 27.6556 20.7084 27.6556C21.7484 27.6556 22.556 28.4667 22.556 29.5111C22.556 30.5556 21.7484 31.3667 20.7084 31.3667ZM33.9619 31.3667C32.9331 31.3667 32.1144 30.5556 32.1144 29.5111V29.3333C32.2029 28.3889 32.9663 27.6667 33.9619 27.6667C34.9576 27.6667 35.8094 28.4778 35.8094 29.5222C35.8094 30.5667 34.9576 31.3778 33.9619 31.3778V31.3667Z" fill="#353535"/>
<path fill-rule="evenodd" clip-rule="evenodd" d="M29.7802 25.2778H27.6672C27.4902 25.2778 27.3574 25.4112 27.3574 25.5889C27.3574 25.7667 27.4902 25.9001 27.6672 25.9001H29.7802C29.9572 25.9001 30.09 25.7667 30.09 25.5889C30.09 25.4112 29.9572 25.2778 29.7802 25.2778Z" fill="#353535"/>
</g>
</g>
<defs>
<clipPath id="clip0_741_3074">
<rect width="52" height="52" fill="white"/>
</clipPath>
<clipPath id="clip1_741_3074">
<rect width="23" height="12" fill="white" transform="translate(15 20)"/>
</clipPath>
</defs>
</svg>
