<svg width="42" height="37" viewBox="0 0 42 37" fill="none" xmlns="http://www.w3.org/2000/svg">
<g clip-path="url(#clip0_711_712)">
<path d="M39.3583 25.4199V12.262L36.9026 13.091V25.4199C35.376 25.9414 34.261 27.3989 34.261 29.1105V35.743C34.261 36.425 34.8052 36.9866 35.4955 36.9866H40.7654C41.4424 36.9866 41.9999 36.4383 41.9999 35.743V29.1105C41.9999 27.3989 40.8982 25.9414 39.3583 25.4199Z" fill="#F49700"/>
<path d="M19.832 18.0387L7.91162 14.0405V22.4782C7.91162 22.8125 8.04436 23.12 8.27003 23.3607C11.6683 26.7839 16.1948 28.6694 21.0001 28.6694C25.8054 28.6694 30.332 26.7839 33.7302 23.3607C33.9559 23.1334 34.0886 22.8125 34.0886 22.4782V14.0405L22.1683 18.0387C21.3585 18.3062 20.5355 18.2794 19.832 18.0387Z" fill="#F49700"/>
<path d="M21 15.752C21.1327 15.752 21.2655 15.7252 21.385 15.6851L41.1504 9.05267C41.6549 8.87884 41.9867 8.41082 41.9867 7.87595C41.9867 7.34107 41.6416 6.87305 41.1504 6.69922L21.385 0.0667653C21.1327 -0.013466 20.854 -0.013466 20.6018 0.0667653L0.836283 6.69922C0.331858 6.87305 0 7.34107 0 7.87595C0 8.41082 0.345133 8.87884 0.836283 9.05267L20.6018 15.6851C20.7345 15.7252 20.854 15.752 20.9867 15.752H21Z" fill="#F49700"/>
</g>
<defs>
<clipPath id="clip0_711_712">
<rect width="42" height="37" fill="white"/>
</clipPath>
</defs>
</svg>
