<svg width="42" height="30" viewBox="0 0 42 30" fill="none" xmlns="http://www.w3.org/2000/svg">
<g clip-path="url(#clip0_711_723)">
<path d="M23.6851 3.40918L22.2072 0.913467C21.6794 0.0258167 20.5051 -0.270067 19.6078 0.270242C18.0904 1.17076 16.9028 2.50866 16.2035 4.07813C13.4457 2.84314 10.358 2.92033 7.74541 4.07813C7.03288 2.50866 5.84532 1.17076 4.34108 0.270242C3.44381 -0.270067 2.25625 0.0258167 1.72845 0.913467L0.250598 3.40918C-0.0528895 3.92376 -0.0924748 4.52839 0.158232 5.0687C0.395744 5.60901 0.870768 5.98208 1.46455 6.11072C2.30903 6.29083 3.12713 6.63817 3.86606 7.10129C3.2195 7.93748 2.70489 8.86372 2.34862 9.88002C2.20347 10.2788 2.25625 10.7291 2.48057 11.0893C1.53052 15.3989 3.72091 19.657 7.67944 21.5738C6.90093 22.5515 6.50507 23.7222 6.50507 24.9058C6.50507 25.4461 6.84815 25.9349 7.34956 26.1407C7.28359 26.8997 7.83778 27.5687 8.61629 27.6716V28.0447C8.61629 29.1253 9.51356 30.0001 10.6219 30.0001C11.1498 30.0001 11.638 29.7943 11.9942 29.4726C12.3505 29.8071 12.8387 30.0001 13.3665 30.0001C14.4749 30.0001 15.3722 29.1253 15.3722 28.0447V27.6716C16.1507 27.5687 16.7049 26.8997 16.6389 26.1407C17.1403 25.9349 17.4834 25.4589 17.4834 24.9058C17.4834 24.2239 17.3383 23.6965 17.3383 23.6965C17.1535 22.9118 16.7973 22.2042 16.2958 21.5738C16.6785 21.3937 17.048 21.1879 17.4042 20.9564C17.6945 20.7634 17.7737 20.3903 17.5758 20.1073C17.3778 19.8243 16.9952 19.7471 16.7049 19.9401C15.3194 20.8534 13.6964 21.3294 12.0074 21.3294C6.74259 21.3294 2.71808 16.6725 3.69452 11.5781H6.82176C10.1205 11.5781 13.2346 10.3946 15.6625 8.24623L18.0772 10.6004C18.6842 11.1922 19.4627 11.5267 20.3203 11.5781C20.8086 14.0996 20.0564 16.5824 18.4598 18.422C18.2355 18.6793 18.2619 19.0653 18.539 19.284C18.8029 19.5027 19.1988 19.4769 19.4231 19.2068C21.2968 17.0455 22.1677 14.0996 21.5079 11.1021C21.7322 10.7419 21.785 10.2917 21.6399 9.88002C21.2836 8.87659 20.7822 7.93748 20.1224 7.10129C20.8613 6.63817 21.6794 6.29083 22.5239 6.11072C23.7511 5.84057 24.3712 4.47693 23.7247 3.39631L23.6851 3.40918Z" fill="#F49700"/>
<path d="M7.77197 14.1509V14.8199C7.77197 15.1544 8.04907 15.4374 8.40534 15.4374C8.76161 15.4374 9.0387 15.1672 9.0387 14.8199V14.1509C9.0387 13.8165 8.76161 13.5334 8.40534 13.5334C8.04907 13.5334 7.77197 13.8036 7.77197 14.1509Z" fill="#F49700"/>
<path d="M14.9631 14.1509V14.8199C14.9631 15.1544 15.2402 15.4374 15.5965 15.4374C15.9528 15.4374 16.2299 15.1672 16.2299 14.8199V14.1509C16.2299 13.8165 15.9528 13.5334 15.5965 13.5334C15.2402 13.5334 14.9631 13.8036 14.9631 14.1509Z" fill="#F49700"/>
<path d="M12.4693 14.4083C12.3505 14.5369 12.179 14.6141 11.9943 14.6141C11.8096 14.6141 11.638 14.5369 11.5193 14.4083C11.2949 14.151 10.8991 14.1253 10.6352 14.344C10.3713 14.5627 10.3449 14.9486 10.5692 15.2059C10.9255 15.6047 11.4533 15.8363 11.9943 15.8363C12.5353 15.8363 13.0631 15.6047 13.4194 15.2059C13.6437 14.9486 13.6173 14.5627 13.3534 14.344C13.0895 14.1253 12.6936 14.151 12.4693 14.4083Z" fill="#F49700"/>
<path d="M27.8416 16.0677V16.7495C27.8416 17.084 28.1186 17.367 28.4749 17.367C28.8312 17.367 29.1083 17.0969 29.1083 16.7495V16.0677C29.1083 15.7332 28.8312 15.4502 28.4749 15.4502C28.1186 15.4502 27.8416 15.7203 27.8416 16.0677Z" fill="#F49700"/>
<path d="M35.165 16.0677V16.7495C35.165 17.084 35.4421 17.367 35.7984 17.367C36.1547 17.367 36.4318 17.0969 36.4318 16.7495V16.0677C36.4318 15.7332 36.1547 15.4502 35.7984 15.4502C35.4421 15.4502 35.165 15.7203 35.165 16.0677Z" fill="#F49700"/>
<path d="M32.6183 16.325C32.4995 16.4666 32.3148 16.5437 32.13 16.5437C31.9453 16.5437 31.7606 16.4666 31.6418 16.325C31.4175 16.0678 31.0216 16.042 30.7577 16.2607C30.4938 16.4794 30.4675 16.8654 30.6918 17.1226C31.0612 17.5343 31.5758 17.7659 32.13 17.7659C32.6842 17.7659 33.212 17.5343 33.5683 17.1226C33.7926 16.8654 33.7662 16.4794 33.5023 16.2607C33.2384 16.042 32.8426 16.0678 32.6183 16.325Z" fill="#F49700"/>
<path d="M40.5882 7.89872C40.9577 7.2169 41.2612 6.50936 41.4723 5.78894C41.8418 4.51536 40.4035 3.4862 39.2687 4.20661C38.8069 4.50249 38.3187 4.77265 37.8041 5.00421C36.1415 3.85927 34.1754 3.25464 32.1302 3.25464C26.6938 3.25464 22.2603 7.57711 22.2603 12.8773C22.2603 16.7624 24.6222 20.1071 28.0265 21.6251C27.6175 22.0625 27.2744 22.5771 27.0237 23.1303C26.6014 24.0823 26.5619 24.8284 26.5619 25.5617C26.5619 26.6552 27.4723 27.5299 28.5807 27.5299H28.6071V27.9673C28.6071 29.0865 29.5308 29.9871 30.6787 29.9871C31.2329 29.9871 31.7475 29.7684 32.117 29.421C32.4865 29.7684 33.0011 29.9871 33.5553 29.9871C34.7032 29.9871 35.6269 29.0865 35.6269 27.9673V27.5299H35.6533C36.7749 27.5299 37.6721 26.6423 37.6721 25.5617C37.6721 24.8284 37.6325 24.0823 37.2103 23.1303C36.9596 22.5771 36.6297 22.0754 36.2075 21.638C36.6429 21.445 37.0784 21.2135 37.4874 20.9562C37.7777 20.7761 37.8569 20.3901 37.6721 20.1071C37.4874 19.8241 37.0915 19.7469 36.8013 19.927C35.4026 20.8147 33.7796 21.2778 32.1038 21.2778C27.5647 21.2778 23.8437 17.843 23.5138 13.4948H31.2461C33.2122 13.4562 35.0727 12.903 36.6825 11.9382C37.8437 12.813 39.2423 13.3404 40.6674 13.469C40.5355 15.2958 39.7965 17.0454 38.543 18.4347C38.3187 18.692 38.3319 19.078 38.5958 19.2967C38.8597 19.5154 39.2555 19.5025 39.4799 19.2452C41.0633 17.4828 41.9341 15.2315 41.9341 12.8901C41.9341 11.1277 41.4459 9.42959 40.5223 7.92445L40.5882 7.89872Z" fill="#F49700"/>
</g>
<defs>
<clipPath id="clip0_711_723">
<rect width="42" height="30" fill="white"/>
</clipPath>
</defs>
</svg>
